<?xml version="1.0" encoding="utf-8"?>
<svg width="20px" height="22px" viewBox="0 0 20 22" version="1.1" xmlns:xlink="http://www.w3.org/1999/xlink" xmlns="http://www.w3.org/2000/svg">
  <desc>Created with Lunacy</desc>
  <path d="M12.6652 2.77974C12.5929 1.23307 11.3061 0 9.73077 0C8.15665 0 6.86871 1.23269 6.79638 2.77966C4.05151 3.93334 2.20319 6.62471 2.20319 9.67243L2.20319 13.8773C0.971167 13.9709 0 14.9953 0 16.2428C0 17.5538 1.0704 18.6154 2.39043 18.6154L5.9231 18.6154C5.9231 20.4847 7.43844 22 9.30771 22C11.177 22 12.6923 20.4847 12.6923 18.6154L17.0711 18.6154C18.3904 18.6154 19.4615 17.5524 19.4615 16.2428C19.4615 14.9949 18.4888 13.971 17.2583 13.8773L17.2583 9.67243C17.2583 6.62535 15.41 3.93357 12.6652 2.77974ZM10.9109 18.6154L7.70447 18.6154C7.70447 19.5008 8.42227 20.2186 9.30771 20.2186C10.1932 20.2186 10.9109 19.5008 10.9109 18.6154L10.9109 18.6154ZM7.95963 4.19468C5.58106 4.95189 3.93561 7.15692 3.93561 9.67891L3.93561 14.1363C3.93561 15.0593 3.1819 15.8086 2.25392 15.8086C1.94439 15.8086 1.69232 16.0592 1.69232 16.3659C1.69232 16.6733 1.94429 16.9231 2.25684 16.9231L17.2047 16.9231C17.5163 16.9231 17.7692 16.6722 17.7692 16.3659C17.7692 16.0596 17.5162 15.8086 17.2076 15.8086C16.2781 15.8086 15.526 15.0617 15.526 14.1363L15.526 9.67891C15.526 7.15755 13.8804 4.95201 11.5019 4.19471L10.8524 3.98792L10.8524 2.80363C10.8524 2.19101 10.35 1.69232 9.73078 1.69232C9.11234 1.69232 8.60914 2.19114 8.60914 2.80363L8.60914 3.98791L7.95963 4.19468Z" id="Shape" fill="#909090" fill-rule="evenodd" stroke="none" />
</svg>