<svg width="150" height="150" xmlns="http://www.w3.org/2000/svg">
 <!-- Generator: Sketch 50.2 (55047) - http://www.bohemiancoding.com/sketch -->
 <title>TOR</title>
 <desc>Created with Sketch.</desc>

 <g>
  <title>background</title>
  <rect fill="none" id="canvas_background" height="402" width="582" y="-1" x="-1"/>
 </g>
 <g>
  <title>Layer 1</title>
  <ellipse ry="55" rx="55" id="svg_1" cy="74.453125" cx="74.5" stroke-width="1.5" stroke="#ffffff" fill="#fff"/>
  <g fill-rule="evenodd" fill="none" id="TOR">
   <g id="Group-34">
    <path fill="#CE1141" id="Fill-1" d="m91.27423,122.539c-0.317,0 -0.62,-0.15 -0.81,-0.413l-0.192,-0.266c-0.365,-0.533 -0.284,-0.997 -0.204,-1.228c0.256,-0.74 1.026,-0.984 1.771,-1.218c0.256,-0.081 0.685,-0.216 0.8,-0.305c0.254,-0.216 0.534,-0.407 0.817,-0.595c0.611,-0.409 1.115,-0.886 1.576,-1.346c0.183,-0.185 0.391,-0.356 0.599,-0.525c0,0 0.272,-0.223 0.33,-0.267l0.71,-0.735l0.559,-0.592l0.414,-0.43c0.297,-0.306 0.595,-0.61 0.869,-0.937c0.632,-0.733 1.283,-1.524 1.945,-2.362c0.231,-0.286 0.424,-0.584 0.62,-0.883l0.346,-0.519c0.068,-0.104 0.136,-0.206 0.214,-0.309c0.389,-0.541 0.692,-1.024 0.942,-1.504c0.366,-0.678 0.777,-1.305 1.175,-1.912l0.349,-0.533c0.277,-0.433 0.567,-0.899 0.769,-1.376c0.109,-0.263 0.25,-0.517 0.393,-0.771c0.094,-0.165 0.189,-0.33 0.267,-0.503c0.196,-0.43 0.377,-0.865 0.558,-1.299l0.287,-0.684c0.026,-0.075 0.084,-0.241 0.209,-0.41c0.468,-0.754 0.805,-1.683 1.162,-2.668l0.229,-0.633c0.415,-1.143 0.808,-2.222 1.027,-3.357c0.135,-0.722 0.352,-1.43 0.642,-2.101c0.075,-0.179 0.124,-0.429 0.176,-0.695l0.255,-1.223c0.237,-1.126 0.474,-2.252 0.689,-3.384c0.128,-0.681 0.236,-1.403 0.34,-2.273c0.046,-0.372 0.072,-0.744 0.1,-1.116l0.07,-0.912c0.043,-0.568 0.085,-1.132 0.138,-1.699c0.017,-0.217 0.032,-0.456 0.046,-0.699c0.027,-0.431 0.054,-0.87 0.099,-1.279c0.036,-0.374 0.091,-0.949 0.617,-1.312c0.297,-0.186 0.583,-0.266 0.892,-0.266c0.127,0 0.262,0.014 0.407,0.04c0.383,0.065 1.005,0.21 1.436,0.355c0.538,0.191 1.065,0.378 1.568,0.594c1.21,0.525 2.334,1.196 3.441,2.051c0.106,0.082 0.204,0.163 0.317,0.227c0.035,0.019 0.068,0.041 0.101,0.064c0.287,0.207 0.549,0.462 0.829,0.73l0.331,0.316c0.119,0.087 0.339,0.267 0.536,0.5c0.136,0.159 0.498,0.618 0.632,0.821c0.03,0.044 0.075,0.104 0.123,0.166c0.113,0.152 0.233,0.316 0.329,0.476c0.111,0.185 0.212,0.379 0.31,0.572c0.109,0.212 0.213,0.423 0.341,0.603c0.281,0.399 0.342,0.861 0.185,1.378c-0.45,1.568 -1.291,4.599 -1.291,4.599l-0.723,2.325c-0.012,0.036 -0.024,0.072 -0.04,0.106l-0.658,1.497l-1.229,2.504l-0.734,1.381l-1.243,2.464l-0.572,0.952l-1.907,2.748l-1.008,1.247l-0.284,0.391l-0.902,1.209l-1.684,1.942l-1.479,1.426l-1.173,1.262l-0.789,0.781l-0.741,0.696c-0.03,0.027 -0.061,0.053 -0.094,0.078l-1.615,1.192l-1.216,0.88l-0.804,0.638l-1.763,1.244l-1.019,0.667l-0.831,0.46l-0.603,0.372l-0.353,0.242c-0.051,0.034 -0.105,0.065 -0.16,0.089l-0.33,0.146c-0.001,0.003 -0.462,0.246 -0.544,0.292l-0.006,-0.011c-0.303,0.166 -1.126,0.558 -3.715,1.793l-1.525,0.597l-0.483,0.208c-0.066,0.03 -0.137,0.051 -0.208,0.065l-0.768,0.146c-0.062,0.012 -0.125,0.018 -0.187,0.018"/>
    <path fill="#FFFFFF" id="Fill-3" d="m113.0703,76c-0.496,0 -0.958,0.129 -1.372,0.384c-0.029,0.018 -0.059,0.037 -0.087,0.056c-0.912,0.629 -1.005,1.612 -1.039,1.982l-0.006,0.059c-0.045,0.413 -0.074,0.867 -0.101,1.315c-0.015,0.235 -0.03,0.47 -0.047,0.695c-0.051,0.544 -0.093,1.113 -0.136,1.685l-0.023,0.293c-0.017,0.197 -0.034,0.42 -0.049,0.641c-0.027,0.351 -0.051,0.702 -0.094,1.049c-0.102,0.853 -0.207,1.554 -0.331,2.211c-0.212,1.121 -0.453,2.266 -0.687,3.373l-0.193,0.92c-0.021,0.095 -0.041,0.199 -0.062,0.305c-0.041,0.206 -0.083,0.42 -0.125,0.523c-0.307,0.709 -0.546,1.489 -0.696,2.288c-0.202,1.049 -0.583,2.094 -0.985,3.2l-0.164,0.453l-0.063,0.172c-0.334,0.922 -0.649,1.793 -1.094,2.516c-0.156,0.236 -0.237,0.452 -0.277,0.563c-0.09,0.211 -0.178,0.422 -0.266,0.634c-0.178,0.427 -0.356,0.854 -0.547,1.274c-0.07,0.153 -0.151,0.292 -0.23,0.43c-0.143,0.254 -0.305,0.541 -0.447,0.88c-0.169,0.399 -0.433,0.824 -0.689,1.223l-0.329,0.503c-0.414,0.63 -0.841,1.281 -1.224,1.993c-0.24,0.457 -0.519,0.901 -0.892,1.42c-0.066,0.088 -0.143,0.203 -0.22,0.318l-0.08,0.119c-0.1,0.149 -0.186,0.28 -0.271,0.41c-0.192,0.292 -0.372,0.567 -0.554,0.792c-0.667,0.845 -1.308,1.625 -1.925,2.339c-0.258,0.306 -0.535,0.592 -0.829,0.895c-0.145,0.15 -0.291,0.3 -0.433,0.451l-0.605,0.639l-0.551,0.583c-0.072,0.056 -0.129,0.102 -0.18,0.146l-0.163,0.134c-0.208,0.168 -0.445,0.36 -0.68,0.596c-0.421,0.42 -0.88,0.855 -1.376,1.187l-0.065,0.044c-0.25,0.167 -0.528,0.354 -0.808,0.583c-0.121,0.052 -0.366,0.13 -0.536,0.183c-0.842,0.266 -1.995,0.63 -2.415,1.846c-0.241,0.695 -0.128,1.46 0.308,2.097c0.01,0.015 0.02,0.029 0.031,0.043l0.192,0.266c0.381,0.525 0.986,0.827 1.62,0.827c0.125,0 0.251,-0.012 0.377,-0.035l0.768,-0.148c0.142,-0.027 0.281,-0.07 0.414,-0.126l0.482,-0.208l1.425,-0.556c0.046,-0.018 0.091,-0.037 0.135,-0.058c2.376,-1.134 3.328,-1.588 3.764,-1.826l0.01,0.016c0.079,-0.044 0.391,-0.208 0.524,-0.279l0.272,-0.12c0.111,-0.049 0.219,-0.109 0.32,-0.177l0.353,-0.242l0.56,-0.344l0.724,-0.397c0.046,-0.025 0.09,-0.052 0.133,-0.08l0.99,-0.647c0.02,-0.013 0.039,-0.026 0.059,-0.04l1.717,-1.211c0.03,-0.021 0.059,-0.043 0.088,-0.066l0.805,-0.636l1.172,-0.848l1.118,-0.831l0.509,-0.371c0.066,-0.048 0.129,-0.1 0.188,-0.157l0.723,-0.675c0.013,-0.013 0.025,-0.026 0.039,-0.038l0.761,-0.752c0.019,-0.02 0.038,-0.04 0.056,-0.06l1.174,-1.261l1.377,-1.322c0.043,-0.042 0.084,-0.085 0.123,-0.13l1.638,-1.884c0.032,-0.037 0.063,-0.076 0.093,-0.115l0.896,-1.199l0.299,-0.41l0.931,-1.147c0.031,-0.039 0.06,-0.078 0.089,-0.119l1.873,-2.696c0.024,-0.035 0.046,-0.071 0.069,-0.107l0.534,-0.883c0.026,-0.044 0.051,-0.088 0.073,-0.134l1.254,-2.485l0.698,-1.312c0.011,-0.019 0.021,-0.038 0.031,-0.058l1.211,-2.466c0.012,-0.025 0.024,-0.05 0.036,-0.077l0.658,-1.496c0.03,-0.069 0.057,-0.139 0.079,-0.212l0.714,-2.296l0.018,-0.058c0,-0.001 0.84,-3.028 1.293,-4.609c0.301,-0.997 -0.01,-1.751 -0.327,-2.203c-0.08,-0.112 -0.179,-0.306 -0.275,-0.494c-0.109,-0.211 -0.219,-0.423 -0.339,-0.624c-0.137,-0.226 -0.278,-0.415 -0.391,-0.566c-0.038,-0.051 -0.075,-0.098 -0.105,-0.142c-0.173,-0.26 -0.553,-0.736 -0.696,-0.903c-0.216,-0.257 -0.456,-0.463 -0.671,-0.632c-0.086,-0.081 -0.17,-0.162 -0.251,-0.241c-0.293,-0.283 -0.596,-0.575 -0.942,-0.825c-0.065,-0.048 -0.133,-0.091 -0.204,-0.13c-0.06,-0.037 -0.117,-0.087 -0.175,-0.133c-1.186,-0.917 -2.38,-1.629 -3.663,-2.185c-0.571,-0.245 -1.157,-0.451 -1.626,-0.617c-0.524,-0.177 -1.202,-0.331 -1.62,-0.403c-0.191,-0.034 -0.382,-0.052 -0.567,-0.052m0,2c0.071,0 0.147,0.009 0.229,0.023c0.372,0.064 0.941,0.2 1.292,0.319c0.506,0.179 1.013,0.358 1.497,0.565c1.168,0.507 2.205,1.136 3.223,1.923c0.141,0.11 0.282,0.221 0.443,0.31c0.329,0.238 0.671,0.604 1.065,0.969c0.16,0.123 0.32,0.255 0.453,0.412c0.125,0.146 0.444,0.549 0.562,0.728c0.119,0.175 0.301,0.392 0.428,0.604c0.245,0.409 0.435,0.876 0.696,1.242c0.113,0.161 0.096,0.323 0.041,0.506c-0.454,1.587 -1.298,4.623 -1.298,4.623l-0.714,2.296l-0.658,1.497l-1.211,2.465l-0.72,1.352l-1.253,2.484l-0.534,0.884l-1.873,2.695l-0.963,1.188l-0.315,0.433l-0.896,1.199l-1.638,1.884l-1.417,1.361l-1.211,1.302l-0.761,0.752l-0.722,0.676l-0.522,0.382l-1.099,0.816l-1.206,0.873l-0.838,0.663l-1.719,1.211l-0.99,0.647l-0.766,0.421l-0.644,0.396l-0.394,0.268l-0.335,0.148c0,0 -0.622,0.328 -0.638,0.34c-0.008,0.008 -3.649,1.745 -3.649,1.745l-1.458,0.568l-0.514,0.222l-0.768,0.146l-0.192,-0.266c-0.522,-0.761 1.551,-0.842 2.205,-1.402c0.24,-0.205 0.506,-0.379 0.771,-0.557c0.617,-0.413 1.157,-0.916 1.68,-1.438c0.221,-0.222 0.48,-0.416 0.722,-0.617c0.093,-0.084 0.204,-0.154 0.29,-0.246c0.404,-0.425 0.802,-0.851 1.206,-1.276c0.443,-0.468 0.908,-0.918 1.323,-1.412c0.672,-0.778 1.33,-1.582 1.964,-2.386c0.338,-0.416 0.614,-0.875 0.916,-1.322c0.094,-0.136 0.177,-0.271 0.279,-0.408c0.379,-0.527 0.727,-1.062 1.028,-1.641c0.441,-0.817 0.972,-1.582 1.478,-2.365c0.313,-0.488 0.62,-0.986 0.85,-1.53c0.179,-0.43 0.456,-0.821 0.65,-1.25c0.301,-0.66 0.569,-1.335 0.854,-2.003c0.025,-0.064 0.047,-0.146 0.094,-0.209c0.601,-0.961 0.977,-2.04 1.362,-3.1c0.466,-1.296 0.967,-2.589 1.233,-3.963c0.122,-0.65 0.312,-1.279 0.578,-1.892c0.155,-0.374 0.21,-0.782 0.296,-1.183c0.302,-1.441 0.614,-2.882 0.889,-4.332c0.146,-0.778 0.257,-1.555 0.35,-2.339c0.073,-0.59 0.101,-1.186 0.153,-1.781c0.049,-0.66 0.096,-1.314 0.158,-1.973c0.05,-0.634 0.074,-1.332 0.143,-1.96c0.026,-0.243 0.031,-0.489 0.192,-0.6c0.102,-0.064 0.207,-0.087 0.323,-0.087"/>
    <path fill="#CE1141" id="Fill-5" d="m124.43938,83.474c-0.334,0 -0.657,-0.158 -0.889,-0.435c-0.15,-0.176 -0.339,-0.461 -0.517,-0.741c-0.12,-0.187 -0.232,-0.374 -0.323,-0.474c-0.184,-0.161 -0.364,-0.353 -0.507,-0.544c-0.457,-0.601 -1.103,-1.073 -1.786,-1.573l-1.213,-0.898l-0.549,-0.309c-0.399,-0.22 -0.775,-0.428 -1.152,-0.583c-0.832,-0.338 -1.759,-0.644 -2.564,-0.905c-0.119,-0.037 -0.282,-0.073 -0.425,-0.106c-0.116,-0.028 -0.222,-0.052 -0.304,-0.075l-0.126,-0.022c-0.151,-0.027 -0.301,-0.058 -0.459,-0.106c-0.259,-0.079 -0.656,-0.198 -0.927,-0.625c-0.216,-0.332 -0.272,-0.718 -0.28,-0.982c0,0 -0.004,-0.522 -0.01,-0.733l-0.064,-1.304c-0.027,-0.54 -0.054,-1.08 -0.077,-1.62c-0.071,-1.986 -0.396,-3.903 -0.741,-5.934l-0.068,-0.401c-0.053,-0.319 -0.108,-0.563 -0.161,-0.803c-0.069,-0.311 -0.135,-0.616 -0.198,-1.03l-0.029,-0.169c-0.072,-0.407 -0.172,-0.964 0.181,-1.469c0.485,-0.633 1.228,-0.633 1.627,-0.633c0.479,0 0.806,0.005 1.219,0.011l0.353,0.005c0.934,0.016 1.65,0.05 2.325,0.11c0.852,0.08 1.837,0.178 2.799,0.343c0.563,0.094 1.091,0.244 1.601,0.389c0.234,0.066 0.468,0.133 0.706,0.194c0.222,0.054 0.47,0.143 0.713,0.233c0.121,0.045 0.241,0.09 0.356,0.126c0.199,0.061 0.405,0.155 0.595,0.247c0.312,0.151 1.213,0.591 1.453,1.743c0.314,1.569 0.714,4.496 0.732,4.62l0.351,3.373l0.014,0.536l-0.013,2.975l-0.214,3.026c0,0 -0.381,3.442 -0.399,3.574c-0.026,0.607 -0.54,0.969 -1.03,0.969"/>
    <path fill="#FFFFFF" id="Fill-7" d="m112.7835,60.1655c-0.447,0 -1.638,0 -2.396,0.992c-0.016,0.021 -0.032,0.043 -0.047,0.065c-0.595,0.844 -0.436,1.738 -0.351,2.218l0.026,0.149c0.069,0.453 0.144,0.794 0.21,1.095c0.05,0.225 0.102,0.453 0.152,0.751l0.068,0.403c0.339,1.996 0.658,3.883 0.727,5.795c0.024,0.564 0.051,1.113 0.079,1.663c0.021,0.43 0.043,0.859 0.062,1.29c0.005,0.172 0.007,0.317 0.008,0.498l0.002,0.168c0.013,0.435 0.101,1.014 0.448,1.548c0.459,0.725 1.174,0.937 1.408,1.006c0.008,0.003 0.044,0.014 0.052,0.016c0.235,0.073 0.433,0.109 0.577,0.135c0.031,0.005 0.061,0.01 0.092,0.017c0.082,0.022 0.183,0.045 0.291,0.07c0.116,0.027 0.249,0.055 0.352,0.087c0.778,0.252 1.682,0.55 2.487,0.878c0.325,0.132 0.678,0.328 1.051,0.535c0.148,0.082 0.297,0.164 0.446,0.245l0.75,0.555l0.237,0.176l0.218,0.16c0.623,0.455 1.211,0.886 1.586,1.377c0.15,0.201 0.342,0.413 0.563,0.618c0.066,0.091 0.138,0.21 0.215,0.329c0.188,0.293 0.382,0.596 0.605,0.857c0.41,0.49 1.014,0.778 1.643,0.778c0.915,0 1.918,-0.665 2.029,-1.9c0.018,-0.152 0.039,-0.357 0.039,-0.357l0.351,-3.135c0.003,-0.027 0.005,-0.053 0.007,-0.081l0.211,-2.959c0.003,-0.044 0.005,-0.089 0.005,-0.133l0.014,-2.951l-0.009,-0.496c-0.001,-0.057 -0.005,-0.114 -0.011,-0.171l-0.348,-3.342c-0.002,-0.021 -0.004,-0.042 -0.007,-0.063c-0.018,-0.125 -0.422,-3.082 -0.74,-4.673c-0.23,-1.099 -0.895,-1.917 -1.981,-2.447c-0.198,-0.095 -0.457,-0.22 -0.766,-0.314c-0.081,-0.026 -0.184,-0.065 -0.29,-0.104c-0.246,-0.091 -0.524,-0.194 -0.832,-0.27c-0.212,-0.054 -0.437,-0.118 -0.662,-0.182c-0.537,-0.152 -1.092,-0.31 -1.717,-0.414c-0.986,-0.169 -1.995,-0.27 -2.862,-0.351c-0.706,-0.064 -1.445,-0.099 -2.401,-0.114l-0.39,-0.006c-0.402,-0.006 -0.729,-0.011 -1.201,-0.011m0,2c0.601,0 0.96,0.008 1.558,0.016c0.753,0.013 1.499,0.039 2.249,0.107c0.904,0.084 1.823,0.178 2.719,0.332c0.764,0.127 1.477,0.373 2.23,0.566c0.326,0.08 0.691,0.242 1.015,0.344c0.164,0.05 0.324,0.127 0.473,0.199c0.445,0.217 0.783,0.498 0.897,1.042c0.309,1.547 0.718,4.55 0.718,4.55l0.349,3.342l0.009,0.451l-0.014,2.951l-0.211,2.96l-0.353,3.163c0,0 -0.023,0.226 -0.039,0.349c-0.003,0.059 -0.011,0.102 -0.039,0.102c-0.025,0 -0.072,-0.016 -0.122,-0.076c-0.291,-0.341 -0.686,-1.089 -0.918,-1.298c-0.144,-0.127 -0.283,-0.268 -0.396,-0.42c-0.603,-0.792 -1.416,-1.352 -2.202,-1.93c-0.332,-0.248 -0.669,-0.499 -1.004,-0.745c-0.061,-0.047 -0.124,-0.094 -0.191,-0.124c-0.576,-0.306 -1.131,-0.647 -1.726,-0.889c-0.844,-0.344 -1.766,-0.65 -2.634,-0.931c-0.238,-0.075 -0.587,-0.144 -0.774,-0.194c-0.183,-0.043 -0.36,-0.06 -0.551,-0.119c-0.157,-0.052 -0.293,-0.07 -0.379,-0.206c-0.08,-0.123 -0.119,-0.305 -0.124,-0.475c-0.003,-0.281 -0.003,-0.46 -0.012,-0.736c-0.044,-0.982 -0.099,-1.956 -0.14,-2.934c-0.078,-2.181 -0.46,-4.317 -0.823,-6.46c-0.121,-0.723 -0.246,-1.088 -0.356,-1.816c-0.056,-0.361 -0.157,-0.713 -0.017,-0.914c0.15,-0.195 0.49,-0.207 0.808,-0.207"/>
    <path fill="#CE1141" id="Fill-10" d="m99.64578,47.742c-0.64,0 -1.217,-0.033 -1.713,-0.098c-1.273,-0.159 -3.67,-0.772 -3.77,-0.798l-2.347,-0.844c-0.205,-0.074 -0.38,-0.214 -0.499,-0.397l-0.675,-1.044l-1.941,-0.439c-0.384,0 -0.726,-0.218 -0.893,-0.549l-0.544,-0.619c-0.119,-0.058 -0.227,-0.139 -0.316,-0.24l-0.819,-0.926l-0.724,-0.048c-0.322,-0.022 -0.615,-0.199 -0.785,-0.475l-0.333,-0.542l-2.4,-0.81l-1.77,0.689c-0.117,0.046 -0.24,0.068 -0.363,0.068c-0.175,0 -0.351,-0.046 -0.506,-0.138c-0.15,-0.087 -0.271,-0.211 -0.356,-0.356l-3.142,-1.529c-0.121,-0.019 -0.237,-0.053 -0.328,-0.106l-2.098,-1.213l-4.04,-0.236c-0.1,0.033 -0.204,0.049 -0.31,0.049c-0.01,0 -1.68,-0.045 -1.68,-0.045c-0.105,0.036 -0.214,0.054 -0.323,0.054c-0.255,0 -0.506,-0.097 -0.697,-0.283l-1.143,-1.108c-0.1,-0.04 -0.193,-0.097 -0.277,-0.168l-1.195,-1.025l-3.164,-0.164c-0.058,0.011 -0.116,0.017 -0.173,0.017c-0.022,0 -2.799,-0.224 -2.799,-0.224c-0.061,-0.005 -0.121,-0.016 -0.179,-0.032c0,0 -1.213,-0.095 -1.215,-0.095c-0.071,0 -2.074,-0.049 -2.074,-0.049c-0.057,-0.001 -0.113,-0.007 -0.169,-0.019l-0.683,0.281l-1.439,0.503c-0.089,0.031 -0.181,0.049 -0.275,0.054l-0.092,0.005l-2.562,0.982l-1.142,0.408c-0.655,0.256 -0.855,0.326 -0.998,0.345c-0.199,0.06 -0.608,0.2 -0.608,0.2l-1.463,0.574c-0.117,0.045 -0.24,0.069 -0.365,0.069l-1.199,0.487c-0.121,0.049 -0.249,0.074 -0.378,0.074c-0.017,0 -0.064,-0.002 -0.071,-0.002c-0.267,0.094 -0.739,0.268 -0.739,0.268l-0.584,0.178c-0.095,0.028 -0.192,0.042 -0.288,0.042c-0.249,0 -0.493,-0.093 -0.681,-0.268c-0.259,-0.241 -0.372,-0.602 -0.295,-0.948c0.073,-0.329 0.209,-0.513 1.094,-1.271l0.508,-0.427l1.416,-1.117l1.527,-1.031l1.42,-1.121c0.026,-0.021 0.054,-0.041 0.082,-0.059l0.213,-0.135l1.368,-0.728l0.397,-0.23l1.231,-0.642l1.191,-0.783l1.534,-0.834l0.734,-0.354l2.161,-0.846l1.626,-0.676l0.618,-0.239l0.465,-0.272c0.076,-0.044 0.158,-0.078 0.243,-0.101l0.974,-0.264l0.336,-0.206c0.081,-0.049 0.169,-0.087 0.26,-0.112l0.752,-0.205l1.192,-0.435c0.109,-0.039 0.224,-0.059 0.34,-0.059c0.01,0 0.23,0.007 0.23,0.007l1.194,-0.233l0.789,-0.244c0.034,-0.011 0.068,-0.019 0.102,-0.026l1.109,-0.22l1.161,-0.132l1.305,-0.036l1.495,-0.172l1.676,-0.049l1.003,0.018l0.623,0.064l1.483,0.098c0.04,0.003 0.079,0.008 0.118,0.015l1.192,0.224l0.607,0.02c0.049,0.001 0.098,0.007 0.146,0.015l1.424,0.259l0.745,0.191l0.139,0.024l0.999,0.237c0.043,0.01 0.086,0.023 0.128,0.038l2.395,0.902l1.605,0.583l0.431,0.181l2.066,1.113l2.882,1.751l0.822,0.436c0.05,0.026 0.097,0.057 0.141,0.091l2.409,1.861l3.011,2.78l0.841,0.824l2.711,2.975c0.023,0.025 0.046,0.052 0.066,0.08l0.452,0.613l0.446,0.526l2.405,3.459l0.576,0.899c0.366,0.644 0.587,1.048 0.678,1.234c0.268,0.466 0.311,0.902 0.135,1.309c-0.301,0.714 -0.984,0.778 -1.208,0.8c-0.159,0.018 -0.337,0.028 -0.528,0.037l-0.316,0.018c-0.481,0.034 -1.1,0.067 -1.747,0.067l-0.001,0z"/>
    <path fill="#FFFFFF" id="Fill-12" d="m70.79428,23c-0.018,0 -0.036,0 -0.054,0l-1.591,0.043c-0.057,0.002 -0.113,0.006 -0.17,0.013l-1.495,0.168l-1.132,0.028c-0.058,0.001 -0.114,0.005 -0.171,0.012l-1.076,0.119c-0.057,0.006 -0.113,0.014 -0.169,0.026l-1.109,0.219c-0.068,0.014 -0.136,0.031 -0.202,0.052l-0.738,0.228l-1.033,0.201l-0.085,-0.003c-0.021,-0.001 -0.042,-0.001 -0.062,-0.001c-0.232,0 -0.463,0.041 -0.681,0.12l-1.193,0.431l-0.674,0.183c-0.182,0.05 -0.357,0.125 -0.518,0.224l-0.215,0.131l-0.836,0.227c-0.17,0.046 -0.333,0.114 -0.484,0.203l-0.396,0.23l-0.521,0.202c-0.016,0.006 -0.032,0.012 -0.047,0.019l-1.647,0.684l-2.05,0.8c-0.047,0.018 -0.093,0.038 -0.139,0.06l-0.691,0.332c-0.029,0.014 -0.058,0.028 -0.086,0.044l-1.463,0.791c-0.049,0.026 -0.096,0.054 -0.142,0.085l-1.193,0.778l-1.105,0.576c-0.026,0.013 -0.051,0.027 -0.077,0.042l-0.397,0.229l-1.268,0.672c-0.047,0.025 -0.093,0.052 -0.138,0.081l-0.213,0.135c-0.056,0.036 -0.11,0.074 -0.162,0.115l-1.422,1.119l-1.165,0.785l-0.238,0.16c-0.042,0.028 -0.083,0.058 -0.123,0.089l-1.392,1.097l-0.048,0.04l-0.501,0.42c-0.861,0.738 -1.276,1.118 -1.434,1.821c-0.155,0.694 0.069,1.417 0.589,1.902c0.375,0.349 0.864,0.536 1.363,0.536c0.192,0 0.386,-0.028 0.575,-0.084l0.526,-0.158c0.039,-0.012 0.077,-0.025 0.116,-0.039c0.002,-0.001 0.313,-0.116 0.567,-0.207c0.224,-0.012 0.445,-0.061 0.654,-0.146l1.041,-0.425c0.174,-0.019 0.346,-0.061 0.509,-0.126l1.466,-0.574c0.096,-0.033 0.328,-0.111 0.482,-0.158c0.264,-0.052 0.562,-0.167 1.122,-0.386l1.092,-0.39l2.462,-0.943c0.164,-0.015 0.326,-0.049 0.481,-0.103l1.389,-0.484c0.034,-0.012 0.067,-0.025 0.101,-0.039l0.455,-0.186c0.118,0.002 1.638,0.039 2.062,0.049l1.11,0.087c0.079,0.017 0.158,0.03 0.232,0.036l2.733,0.221c0.055,0.004 0.108,0.006 0.162,0.006c0.075,0 0.148,-0.003 0.222,-0.012l2.707,0.14l0.937,0.803c0.108,0.093 0.225,0.173 0.348,0.24l1.028,0.996c0.381,0.37 0.883,0.564 1.392,0.564c0.149,0 0.298,-0.017 0.445,-0.05l1.503,0.041c0.019,0 0.037,0.001 0.055,0.001c0.137,0 0.274,-0.015 0.406,-0.042l3.648,0.213l1.893,1.094c0.174,0.1 0.361,0.174 0.553,0.218l2.758,1.343c0.144,0.167 0.314,0.312 0.509,0.427c0.311,0.183 0.662,0.275 1.013,0.275c0.246,0 0.492,-0.045 0.726,-0.136l1.431,-0.557l1.714,0.578l0.144,0.235c0.339,0.551 0.924,0.905 1.57,0.948l0.314,0.021l0.545,0.617c0.125,0.143 0.269,0.265 0.427,0.365l0.362,0.412c0.334,0.556 0.928,0.927 1.597,0.966l1.439,0.327l0.454,0.702c0.237,0.367 0.588,0.646 0.998,0.794l2.255,0.817c0.061,0.022 0.122,0.04 0.184,0.056c0.26,0.067 2.582,0.658 3.901,0.822c0.527,0.069 1.146,0.105 1.83,0.105c0.555,0 1.149,-0.023 1.818,-0.069c0.102,-0.007 0.2,-0.012 0.294,-0.017c0.215,-0.01 0.415,-0.022 0.594,-0.043c1.29,-0.121 1.821,-0.94 2.022,-1.417c0.202,-0.466 0.341,-1.237 -0.177,-2.153c-0.079,-0.157 -0.249,-0.476 -0.662,-1.21c-0.019,-0.032 -0.038,-0.065 -0.059,-0.097l-0.556,-0.867c-0.013,-0.02 -0.027,-0.041 -0.041,-0.061l-2.348,-3.384c-0.035,-0.051 -0.073,-0.101 -0.113,-0.148l-0.445,-0.528l-0.412,-0.56c-0.041,-0.057 -0.085,-0.11 -0.132,-0.162l-0.775,-0.851l-1.898,-2.083c-0.025,-0.028 -0.05,-0.054 -0.078,-0.08l-0.818,-0.804c-0.014,-0.014 -0.028,-0.028 -0.043,-0.041l-2.943,-2.722c-0.044,-0.04 -0.089,-0.078 -0.136,-0.114l-2.409,-1.862c-0.089,-0.069 -0.184,-0.13 -0.284,-0.183l-0.821,-0.436l-2.789,-1.697c-0.028,-0.017 -0.057,-0.034 -0.087,-0.05l-1.981,-1.072c-0.056,-0.031 -0.113,-0.058 -0.171,-0.083l-0.382,-0.161c-0.032,-0.014 -0.064,-0.027 -0.098,-0.039l-1.616,-0.586l-2.373,-0.894c-0.083,-0.031 -0.168,-0.057 -0.255,-0.077l-0.185,-0.043l-0.755,-0.182c-0.033,-0.008 -0.067,-0.015 -0.1,-0.022l-0.137,-0.026l-0.607,-0.157c-0.048,-0.012 -0.097,-0.023 -0.145,-0.032l-1.425,-0.258c-0.097,-0.018 -0.195,-0.029 -0.292,-0.032l-0.531,-0.017l-1.115,-0.21c-0.078,-0.014 -0.157,-0.024 -0.236,-0.029l-1.482,-0.1l-0.494,-0.053c-0.059,-0.007 -0.118,-0.01 -0.178,-0.012l-0.957,-0.018l-0.038,0zm0,2l0.957,0.018l0.534,0.058l1.525,0.102l1.267,0.238l0.683,0.022l1.424,0.259l0.673,0.175l0.204,0.038l0.775,0.187l0.185,0.043l2.396,0.902l1.616,0.586l0.382,0.162l1.98,1.072l2.839,1.726l0.871,0.464l2.409,1.861l2.944,2.722l0.819,0.804l1.897,2.083l0.775,0.851l0.451,0.613l0.487,0.578l2.349,3.384l0.556,0.868c0,0 0.57,1.011 0.633,1.16c0.044,0.082 0.18,0.269 0.103,0.447c-0.075,0.179 -0.233,0.187 -0.404,0.203c-0.23,0.027 -0.501,0.031 -0.8,0.052c-0.462,0.032 -1.056,0.064 -1.679,0.064c-0.528,0 -1.077,-0.023 -1.583,-0.089c-1.23,-0.154 -3.651,-0.775 -3.651,-0.775l-2.254,-0.816l-0.897,-1.386l-2.437,-0.553l-0.122,0l-0.014,-0.064l-0.88,-1.003l-0.11,-0.004l-1.09,-1.234l-1.135,-0.076l-0.522,-0.85l-3.087,-1.042l-2.109,0.82l-0.027,-0.199l-3.713,-1.808l-0.091,0.013l-2.103,-1.216l-0.027,-0.106l-4.725,-0.276l-0.094,0.064l-1.879,-0.052l-0.124,0.06l-1.364,-1.322l-0.102,0.004l-1.339,-1.148l-0.022,-0.094l-3.776,-0.195l-0.031,0.024l-2.733,-0.221l-0.044,-0.02l-1.35,-0.107c-0.028,0 -2.13,-0.051 -2.13,-0.051l-0.158,-0.115l-1.099,0.451l-1.388,0.484l-0.249,0.014l-2.708,1.037l-1.121,0.4c0,0 -0.752,0.294 -0.8,0.294c-0.001,0 -0.002,0 -0.002,-0.001c0,-0.001 -0.001,-0.001 -0.004,-0.001c-0.054,0 -0.785,0.248 -0.785,0.248l-1.507,0.59l-0.202,0l-1.375,0.561c0,0 -0.166,-0.008 -0.185,-0.016c-0.001,0 -0.001,0 -0.001,0c-0.036,0 -0.971,0.345 -0.971,0.345l-0.525,0.157c0.019,-0.086 0.769,-0.727 0.769,-0.727l0.501,-0.421l1.391,-1.097l0.241,-0.161l1.225,-0.826l1.48,-1.165l0.213,-0.135l1.301,-0.689l0.428,-0.248l1.193,-0.621l1.275,-0.833l1.464,-0.791l0.691,-0.332l2.091,-0.816l1.647,-0.685l0.669,-0.258l0.534,-0.312l1.112,-0.301l0.459,-0.281l0.753,-0.205l1.269,-0.459l0.31,0.01l1.359,-0.264l0.84,-0.261l1.11,-0.219l1.076,-0.12l1.22,-0.03l1.582,-0.178l1.591,-0.043z"/>
    <path fill="#CE1141" id="Fill-14" d="m123.01052,62.785c-0.176,0 -0.375,-0.041 -0.504,-0.079l-0.161,-0.046c-0.278,-0.081 -0.55,-0.163 -0.805,-0.279c-0.472,-0.22 -0.986,-0.389 -1.487,-0.492l-0.521,-0.111c-0.503,-0.108 -1.009,-0.216 -1.513,-0.31c-0.273,-0.044 -0.879,-0.107 -0.884,-0.108c-0.799,-0.074 -1.778,-0.155 -1.946,-0.156c-0.897,0.016 -1.794,0.042 -2.692,0.072c-0.254,0.012 -0.525,0.022 -0.796,0.022c-0.74,0 -1.297,-0.436 -1.469,-1.138l-0.127,-0.487c-0.056,-0.218 -0.112,-0.433 -0.172,-0.648l-0.357,-1.153l-0.341,-1.075c-0.161,-0.507 -0.322,-1.015 -0.487,-1.52c-0.098,-0.297 -0.227,-0.597 -0.358,-0.892c-0.155,-0.359 -0.293,-0.71 -0.43,-1.06c-0.251,-0.641 -0.487,-1.246 -0.798,-1.812c-0.247,-0.459 -0.464,-0.929 -0.679,-1.397l-0.282,-0.605c-0.075,-0.151 -0.136,-0.337 -0.175,-0.538c-0.072,-0.403 0.003,-0.737 0.22,-1.039c0.258,-0.315 0.525,-0.423 0.668,-0.481c0.15,-0.062 0.666,-0.301 0.666,-0.301l0.69,-0.401c-0.003,0 0.466,-0.31 0.58,-0.395c0.144,-0.107 0.796,-0.645 0.824,-0.667l-0.001,0c-0.002,0 0.808,-0.747 1.196,-1.176c0.255,-0.283 0.95,-1.356 1.361,-2.027c0.125,-0.205 0.318,-0.355 0.54,-0.428c0.108,-0.037 0.225,-0.058 0.337,-0.058c0.405,0 0.738,0.185 0.991,0.55c0.144,0.168 0.476,0.566 0.476,0.566l3.62,4.893l0.539,0.873l0.756,1.512l0.749,1.218c0.021,0.036 0.041,0.073 0.058,0.111l0.658,1.463l0.54,1.298l1.145,2.551l0.4,1.11l0.406,1.21l0.143,0.548l0.114,0.301c0.048,0.131 0.297,0.823 0.371,1.25c0.079,0.467 -0.138,1.066 -0.69,1.267l-0.001,-0.002c-0.12,0.043 -0.253,0.066 -0.372,0.066"/>
    <path fill="#FFFFFF" id="Fill-16" d="m113.10946,41c-0.215,0 -0.435,0.037 -0.643,0.106c-0.446,0.145 -0.835,0.445 -1.086,0.857c-0.496,0.808 -1.083,1.69 -1.256,1.887c-0.279,0.307 -0.884,0.878 -1.126,1.103c-0.146,0.119 -0.604,0.495 -0.735,0.594c-0.111,0.082 -0.415,0.284 -0.54,0.367l-0.639,0.367c-0.141,0.065 -0.424,0.195 -0.518,0.235c-0.212,0.086 -0.664,0.268 -1.041,0.72c-0.032,0.039 -0.063,0.078 -0.093,0.119c-0.373,0.522 -0.506,1.116 -0.394,1.766c0.064,0.333 0.155,0.606 0.279,0.854c0.078,0.165 0.171,0.365 0.263,0.566c0.216,0.468 0.438,0.952 0.699,1.438c0.289,0.525 0.514,1.101 0.752,1.71c0.141,0.361 0.283,0.724 0.438,1.082c0.12,0.271 0.246,0.564 0.334,0.827c0.158,0.481 0.314,0.975 0.47,1.468c0.119,0.378 0.239,0.756 0.36,1.132c0.045,0.151 0.105,0.342 0.164,0.532c0.062,0.196 0.124,0.392 0.181,0.589c0.054,0.186 0.106,0.391 0.158,0.597c0.044,0.17 0.088,0.342 0.135,0.514c0.287,1.119 1.255,1.868 2.419,1.868c0.301,0 0.588,-0.01 0.875,-0.024c0.859,-0.028 1.752,-0.054 2.653,-0.07c0.147,0.005 1.083,0.084 1.84,0.153c-0.001,0 0.554,0.058 0.827,0.102c0.442,0.083 0.932,0.188 1.42,0.292l0.54,0.116c0.428,0.088 0.879,0.237 1.276,0.42c0.349,0.16 0.679,0.255 0.945,0.333l0.153,0.044c0.135,0.04 0.453,0.121 0.794,0.121c0.241,0 0.493,-0.045 0.726,-0.13l0.001,0.001c1.058,-0.393 1.471,-1.517 1.321,-2.375c-0.085,-0.484 -0.321,-1.156 -0.419,-1.424l-0.106,-0.296l-0.102,-0.391c-0.012,-0.044 -0.024,-0.088 -0.039,-0.131l-0.398,-1.191l-0.384,-1.077c-0.018,-0.049 -0.037,-0.097 -0.059,-0.145l-1.145,-2.551l-0.518,-1.246c-0.007,-0.017 -0.014,-0.036 -0.022,-0.053l-0.658,-1.463c-0.036,-0.077 -0.074,-0.15 -0.118,-0.222l-0.745,-1.219l-0.145,-0.296l-0.532,-1.066c-0.026,-0.051 -0.054,-0.101 -0.084,-0.15l-0.49,-0.8c-0.03,-0.049 -0.062,-0.097 -0.096,-0.144l-0.208,-0.281l-3.375,-4.567c-0.024,-0.032 -0.048,-0.064 -0.074,-0.094c0,0 -0.271,-0.324 -0.454,-0.537c-0.577,-0.812 -1.362,-0.937 -1.781,-0.937m0,2c0.108,0 0.133,0.076 0.211,0.178c0.166,0.191 0.489,0.578 0.489,0.578l3.375,4.568l0.208,0.28l0.489,0.8l0.529,1.058l0.185,0.375l0.791,1.296l0.659,1.464l0.528,1.271l1.156,2.577l0.371,1.037l0.399,1.191l0.124,0.48l0.141,0.391c0,0 0.264,0.721 0.326,1.081c0.008,0.047 -0.024,0.148 -0.046,0.156c-0.006,0.003 -0.017,0.004 -0.031,0.004c-0.052,0 -0.154,-0.017 -0.221,-0.037c-0.287,-0.086 -0.573,-0.158 -0.833,-0.277c-0.534,-0.246 -1.126,-0.443 -1.702,-0.561c-0.682,-0.144 -1.369,-0.298 -2.052,-0.425c-0.316,-0.051 -0.962,-0.119 -0.962,-0.119c0,0 -1.756,-0.162 -2.051,-0.162l-0.011,0c-0.91,0.017 -1.811,0.043 -2.714,0.072c-0.254,0.013 -0.508,0.022 -0.763,0.022l-0.014,0c-0.252,0 -0.422,-0.115 -0.484,-0.375c-0.108,-0.395 -0.2,-0.787 -0.31,-1.173c-0.116,-0.391 -0.243,-0.778 -0.359,-1.166c-0.28,-0.867 -0.551,-1.747 -0.836,-2.618c-0.111,-0.332 -0.251,-0.664 -0.396,-0.988c-0.425,-0.986 -0.744,-1.999 -1.263,-2.946c-0.341,-0.633 -0.626,-1.302 -0.936,-1.951c-0.047,-0.095 -0.077,-0.197 -0.097,-0.298c-0.022,-0.129 -0.005,-0.187 0.05,-0.264c0.064,-0.076 0.175,-0.115 0.269,-0.154c0.094,-0.037 0.675,-0.305 0.675,-0.305l0.771,-0.443c0,0 0.557,-0.369 0.681,-0.463c0.128,-0.093 0.857,-0.694 0.857,-0.694c0,0 0.869,-0.799 1.301,-1.275c0.434,-0.484 1.472,-2.177 1.472,-2.177c0.007,0 0.016,-0.008 0.024,-0.008"/>
    <path fill="#CE1141" id="Fill-18" d="m105.3918,47.228c-0.485,0 -0.985,-0.282 -1.27201,-0.719l-0.11699,-0.165c-0.18701,-0.267 -0.4,-0.57 -0.566,-0.92c-0.199,-0.431 -0.48101,-0.854 -0.89201,-1.342c-0.476,-0.577 -0.848,-1.184 -1.208,-1.771c-0.11399,-0.186 -0.22799,-0.372 -0.34399,-0.556c-0.038,-0.056 -0.07601,-0.124 -0.113,-0.193c-0.31701,-0.389 -0.59101,-0.742 -0.86401,-1.095c-0.42099,-0.543 -0.818,-1.056 -1.27199,-1.505c-0.488,-0.489 -0.908,-1.019 -1.25501,-1.472c-0.34099,-0.444 -0.74799,-0.845 -1.181,-1.269l-0.21299,-0.211c-0.67101,-0.639 -1.182,-1.152 -1.64501,-1.651c-0.276,-0.298 -0.616,-0.559 -0.976,-0.836c-0.187,-0.144 -0.375,-0.288 -0.55799,-0.439c0,0 -0.41801,-0.356 -0.48101,-0.413c-0.05399,-0.049 -0.10499,-0.104 -0.16499,-0.141c-0.57201,-0.319 -1.015,-0.703 -1.387,-1.039c-0.42601,-0.403 -0.889,-0.754 -1.393,-1.059c-0.92101,-0.546 -1.84601,-1.087 -2.784,-1.625c-0.165,-0.099 -0.341,-0.172 -0.588,-0.246c-0.32501,-0.094 -0.625,-0.232 -0.891,-0.354c-0.127,-0.058 -0.25401,-0.116 -0.384,-0.168c-0.298,-0.121 -0.59601,-0.234 -0.893,-0.347c-0.31901,-0.121 -0.637,-0.242 -0.952,-0.369c-0.09601,-0.034 -0.37301,-0.172 -0.37301,-0.172c-0.113,-0.055 -0.20599,-0.128 -0.29,-0.221l-0.07699,-0.086c-0.35601,-0.394 -0.342,-0.999 0.034,-1.376l0.17399,-0.174c0.18901,-0.189 0.44401,-0.294 0.708,-0.294c0.03201,0 0.06501,0.001 0.098,0.005l0.30901,0.03c0.039,0.004 0.076,0.009 0.113,0.018l1.972,0.424l2.069,0.523c0.083,0.025 2.67999,0.927 2.916,1l0,0.003c0.14799,0.044 0.40099,0.133 0.91199,0.311l-0.003,0.009c0.28801,0.096 0.891,0.332 2.381,0.918l4.47501,2.115l5.678,3.405c0.052,0.031 0.10099,0.067 0.146,0.106l1.11499,0.98c0.25201,0.196 0.438,0.34 0.574,0.462l0.006,-0.006c0.06701,0.056 3.221,2.609 3.221,2.609l0.21901,0.188l0.66699,0.656c0.04401,0.043 0.084,0.091 0.12,0.142l0.297,0.43l0.453,0.519c0.04301,0.05 0.08201,0.104 0.11501,0.162l0.175,0.307c0.31,0.471 0.35599,0.692 0.37599,0.786c0.06501,0.33 -0.009,0.694 -0.22,1.089l-0.765,1.283c-0.017,0.031 -0.03699,0.06 -0.05799,0.088l-0.435,0.579c-0.10501,0.126 -0.68601,0.8 -1.005,1.101c-0.22,0.196 -0.506,0.413 -0.733,0.584c-0.10501,0.079 -0.19501,0.145 -0.241,0.185c-0.205,0.194 -0.628,0.421 -0.86101,0.537l-0.744,0.329l-0.42199,0.174c-0.139,0.06 -0.368,0.145 -0.577,0.17c-0.039,0.005 -0.08501,0.007 -0.125,0.007"/>
    <path fill="#FFFFFF" id="Fill-20" d="m83.17405,24c-0.527,0 -1.037,0.209 -1.414,0.585l-0.174,0.175c-0.753,0.752 -0.784,1.963 -0.072,2.753l0.078,0.086c0.164,0.183 0.362,0.334 0.582,0.445c0.128,0.065 0.308,0.152 0.473,0.215c0.313,0.126 0.629,0.246 0.946,0.367c0.292,0.111 0.584,0.222 0.875,0.339c0.115,0.047 0.227,0.099 0.34,0.151c0.283,0.13 0.636,0.291 1.043,0.408c0.143,0.044 0.252,0.087 0.332,0.134c0.958,0.551 1.879,1.09 2.803,1.639c0.429,0.26 0.835,0.567 1.192,0.905c0.438,0.396 0.92,0.813 1.532,1.161c0.018,0.016 0.034,0.032 0.052,0.047c0.075,0.069 0.15,0.136 0.227,0.2l0.097,0.082l0.151,0.128c0.014,0.012 0.028,0.024 0.041,0.035c0.192,0.159 0.389,0.311 0.586,0.462c0.34,0.26 0.633,0.485 0.85,0.72c0.48,0.516 1.005,1.043 1.705,1.711l0.194,0.191c0.404,0.398 0.786,0.773 1.081,1.159c0.368,0.479 0.813,1.038 1.333,1.562c0.42,0.416 0.798,0.904 1.2,1.422c0.252,0.326 0.512,0.662 0.796,0.998c0.05,0.09 0.093,0.163 0.139,0.234c0.101,0.158 0.212,0.34 0.324,0.522c0.377,0.616 0.768,1.253 1.284,1.877c0.362,0.431 0.598,0.783 0.754,1.12c0.212,0.448 0.462,0.804 0.664,1.09l0.118,0.169c0.455,0.689 1.262,1.136 2.086,1.136c0.025,0 0.059,0 0.085,-0.002c0.051,-0.002 0.101,-0.006 0.152,-0.012c0.267,-0.03 0.563,-0.115 0.88,-0.253l0.359,-0.147c0.018,-0.007 0.035,-0.015 0.053,-0.022c0.001,0 0.506,-0.224 0.687,-0.303c0.033,-0.014 0.067,-0.03 0.099,-0.046c0.461,-0.231 0.819,-0.457 1.065,-0.672c0.047,-0.038 0.115,-0.089 0.194,-0.148c0.236,-0.178 0.531,-0.4 0.772,-0.615c0.014,-0.012 0.027,-0.024 0.04,-0.036c0.343,-0.322 0.883,-0.947 1.042,-1.131c0.027,-0.032 0.053,-0.065 0.079,-0.099l0.434,-0.578c0.043,-0.057 0.082,-0.116 0.119,-0.177l0.742,-1.242c0.015,-0.027 0.031,-0.055 0.045,-0.082c0.223,-0.417 0.459,-1.06 0.319,-1.756c-0.049,-0.242 -0.15,-0.566 -0.517,-1.136l-0.143,-0.254c-0.067,-0.117 -0.145,-0.226 -0.233,-0.328l-0.416,-0.477l-0.265,-0.383c-0.071,-0.102 -0.151,-0.197 -0.239,-0.284l-0.614,-0.607c-0.034,-0.034 -0.068,-0.066 -0.104,-0.097l-0.192,-0.164c-0.015,-0.014 -0.032,-0.028 -0.05,-0.042l-1.793,-1.452c-0.714,-0.578 -1.333,-1.079 -1.418,-1.149l-0.008,0.01c-0.172,-0.156 -0.372,-0.313 -0.596,-0.487l-1.071,-0.941c-0.09,-0.079 -0.187,-0.15 -0.29,-0.212l-5.591,-3.358c-0.056,-0.034 -0.115,-0.066 -0.174,-0.093l-4.413,-2.089c-0.041,-0.02 -0.082,-0.038 -0.125,-0.054c-1.37,-0.538 -2.039,-0.801 -2.419,-0.929l0.004,-0.011c-0.469,-0.164 -0.75,-0.263 -0.942,-0.322l0.001,-0.002c-0.174,-0.056 -1.576,-0.539 -2.804,-0.966c-0.055,-0.019 -0.11,-0.035 -0.165,-0.049l-2.034,-0.515c-0.023,-0.006 -0.046,-0.011 -0.07,-0.016l-1.973,-0.425c-0.074,-0.016 -0.15,-0.028 -0.225,-0.035l-0.31,-0.031c-0.065,-0.006 -0.131,-0.009 -0.195,-0.009m0,2l0.31,0.03l1.972,0.425l2.033,0.515c0,0 2.854,0.99 2.883,0.99c0.008,0 0.861,0.298 0.861,0.298c0.016,0 2.342,0.913 2.342,0.913l4.413,2.089l5.591,3.359l1.116,0.979c0,0 0.593,0.463 0.593,0.467c0.006,0.009 2.158,1.748 3.238,2.623c0.063,0.055 0.199,0.171 0.199,0.171l0.614,0.608l0.329,0.476l0.489,0.561l0.175,0.307c0,0 0.239,0.365 0.265,0.493c0.028,0.137 -0.121,0.416 -0.121,0.416l-0.741,1.242l-0.435,0.579c0,0 -0.601,0.7 -0.891,0.973c-0.301,0.269 -0.824,0.633 -0.952,0.748c-0.121,0.115 -0.475,0.307 -0.644,0.392c-0.185,0.08 -0.702,0.309 -0.702,0.309l-0.396,0.162c0,0 -0.208,0.09 -0.315,0.103l-0.008,0c-0.115,0 -0.32,-0.089 -0.438,-0.269c-0.213,-0.31 -0.451,-0.619 -0.614,-0.963c-0.263,-0.571 -0.628,-1.081 -1.029,-1.558c-0.57,-0.689 -0.999,-1.47 -1.475,-2.219c-0.077,-0.118 -0.13,-0.256 -0.224,-0.358c-0.736,-0.859 -1.358,-1.811 -2.166,-2.61c-0.423,-0.426 -0.799,-0.894 -1.165,-1.37c-0.442,-0.578 -0.967,-1.071 -1.483,-1.582c-0.553,-0.527 -1.098,-1.062 -1.615,-1.62c-0.487,-0.527 -1.084,-0.914 -1.629,-1.365c-0.097,-0.084 -0.196,-0.166 -0.291,-0.246c-0.174,-0.144 -0.335,-0.324 -0.531,-0.424c-0.437,-0.244 -0.811,-0.562 -1.178,-0.894c-0.477,-0.451 -0.993,-0.838 -1.547,-1.173c-0.933,-0.554 -1.861,-1.097 -2.803,-1.638c-0.251,-0.149 -0.513,-0.25 -0.799,-0.336c-0.412,-0.119 -0.791,-0.332 -1.189,-0.492c-0.614,-0.248 -1.234,-0.469 -1.843,-0.715c-0.096,-0.035 -0.296,-0.136 -0.296,-0.136l-0.077,-0.086l0.174,-0.174"/>
    <path fill="#CE1141" id="Fill-22" d="m25.40935,81.781c-0.126,0 -0.253,-0.023 -0.375,-0.073c-0.016,-0.006 -0.031,-0.013 -0.046,-0.021c-0.311,-0.132 -0.617,-0.444 -0.685,-1.15l-0.11,-1.68l-0.106,-0.234c-0.061,-0.137 -0.091,-0.286 -0.087,-0.437l0.174,-6.658c0.001,-0.036 0.004,-0.071 0.008,-0.106l0.405,-3.036l0.093,-1.398c0.003,-0.05 0.01,-0.1 0.021,-0.149l0.271,-1.217l0.458,-2.761l0.307,-1.441c0.014,-0.064 0.033,-0.126 0.06,-0.186l0.639,-1.483l0.069,-0.566c0.033,-0.276 0.179,-0.525 0.404,-0.689l1.662,-1.212l3.677,-2.733l3.288,-2.369l2.077,-1.587c0.1,-0.156 0.242,-0.284 0.413,-0.366l0.994,-0.477l0.425,-0.434c0.194,-0.199 0.454,-0.301 0.715,-0.301c0.217,0 0.435,0.071 0.617,0.214l0.003,0.002c0.569,0.093 1.94,0.319 2.425,0.394c0.534,-0.173 1.408,-0.394 2.867,-0.763c0.081,-0.021 0.163,-0.031 0.245,-0.031c0.096,0 0.192,0.014 0.285,0.042l0.337,0.1c0.032,-0.004 0.065,-0.005 0.098,-0.005c0.147,0 0.293,0.032 0.43,0.097l1.119,0.532l0.834,-0.659c0.058,-0.094 0.128,-0.177 0.206,-0.237l4.294,-3.317c0.179,-0.138 0.395,-0.209 0.611,-0.209c0.174,0 0.349,0.046 0.506,0.138l0.135,0.079l0.919,0.03c0.086,0.003 0.171,0.017 0.253,0.041l3.686,-0.023c0.107,-0.038 0.219,-0.057 0.333,-0.057c0.031,0 0.062,0.001 0.093,0.004l1.903,0.179c0.057,-0.054 0.12,-0.102 0.19,-0.142l4.606,-2.659c0.155,-0.09 0.328,-0.133 0.5,-0.133c0.112,0 0.224,0.019 0.331,0.056l2.651,-0.2c0.119,-0.063 0.251,-0.101 0.386,-0.112c0,0 1.292,-0.101 1.318,-0.101c0.111,0 0.222,0.019 0.327,0.055c0,0 6.322,-0.332 6.34,-0.332c0.129,0 0.256,0.025 0.377,0.074l1.675,0.682c0,0 1.908,-0.139 1.932,-0.139c0.224,0 0.441,0.076 0.618,0.214l0.433,0.149c0.02,-0.001 0.042,-0.002 0.063,-0.002c0.05,0 0.099,0.004 0.149,0.011l1.109,0.167c0.362,0.054 0.662,0.301 0.788,0.637l0.53,0.479c0.13,0.033 0.252,0.092 0.36,0.174l1.279,0.973l2.459,0.192c0.106,-0.037 0.217,-0.056 0.328,-0.056c0.109,0 0.218,0.018 0.322,0.054l3.304,1.132l-0.001,0c0.016,0 1.92,0.473 2.724,0.589l2.333,0.304l0.848,0c0.095,0 0.189,0.013 0.28,0.04c0.945,-0.076 1.583,-0.124 1.812,-0.124c0.141,0 0.603,-0.038 1.213,-0.108l0.115,-0.018c0.135,-0.022 0.247,-0.035 0.348,-0.035c0.236,0 0.459,0.059 0.661,0.176c0.374,0.205 0.535,0.508 0.613,0.654l-0.827,0.577l0.878,-0.479c0.047,0.086 0.079,0.15 0.111,0.227l0.332,0.628c0.446,0.851 0.868,1.655 1.213,2.636c0.037,0.111 0.08,0.203 0.122,0.298c0.05,0.116 0.102,0.233 0.147,0.354c0.066,0.184 0.121,0.357 0.176,0.53c0.081,0.257 0.159,0.514 0.272,0.755c0.267,0.538 0.454,1.099 0.635,1.64c0.077,0.23 0.154,0.461 0.238,0.69c0.219,0.604 0.395,1.186 0.574,1.777c0.098,0.327 0.198,0.656 0.306,0.992c0.179,0.559 0.035,0.955 -0.117,1.189c-0.152,0.236 -0.46,0.532 -1.058,0.6c-0.485,0.053 -0.968,0.099 -1.449,0.145l-0.623,0.062c-0.829,0.085 -1.655,0.169 -2.482,0.231c-1.216,0.101 -3.499,0.378 -4.188,0.463l-0.042,0.025c-0.155,0.09 -0.329,0.135 -0.502,0.135c-0.193,0 -0.386,-0.056 -0.553,-0.167c0,0 -0.583,0.04 -0.606,0.04c-0.123,0 -0.244,-0.022 -0.359,-0.067l-1.4,-0.538l-1.426,-0.214c-0.146,-0.022 -0.286,-0.076 -0.409,-0.158l-0.021,-0.015l-0.021,0.005c-0.074,0.017 -0.149,0.026 -0.225,0.026c-0.085,0 -0.17,-0.011 -0.252,-0.033l-1.85,-0.482l-0.368,0.087c-0.014,0.007 -0.61,0.284 -0.61,0.284c-0.059,0.027 -0.12,0.048 -0.182,0.064c-0.19,0.188 -0.445,0.288 -0.704,0.288c-0.166,0 -0.335,-0.041 -0.489,-0.128l-0.912,-0.513l-0.065,-0.002c-0.143,-0.003 -0.285,-0.038 -0.414,-0.101l-0.846,-0.414l-0.139,0.044c-0.06,0.041 -0.122,0.076 -0.186,0.1l-3.217,1.228c-0.103,0.111 -0.232,0.198 -0.377,0.253l-1.037,0.392c-0.078,0.071 -0.168,0.129 -0.264,0.172l-1.181,0.527c-0.103,0.046 -0.211,0.074 -0.322,0.084l-0.566,0.254c-0.131,0.139 -0.299,0.239 -0.487,0.286l-0.395,0.098c-0.08,0.02 -0.161,0.029 -0.242,0.029c-0.115,0 -0.23,-0.02 -0.34,-0.059l-2.059,-0.099c-0.164,0.116 -0.359,0.18 -0.56,0.183l-2.838,0.049c-0.141,0.072 -0.297,0.108 -0.453,0.108c-0.23,0 -0.46,-0.078 -0.648,-0.238l-1.145,-0.975l-0.884,0.15c-0.119,0.071 -0.251,0.117 -0.39,0.134l-1.237,0.152c-0.161,0.101 -0.345,0.152 -0.531,0.152c-0.145,0 -0.291,-0.031 -0.427,-0.095l-1.605,-0.759l-2.822,0.362l-1.965,1.871c-0.062,0.059 -0.131,0.11 -0.206,0.151l-2.599,2.652c-0.14,0.144 -0.321,0.242 -0.518,0.281l-1.513,0.303c-0.065,0.013 -0.13,0.019 -0.196,0.019c-0.031,0 -0.063,-0.001 -0.095,-0.004l-1.939,-0.184c-0.126,-0.013 -0.246,-0.048 -0.355,-0.103l-4.23,-0.059l-1.5,1.028l-1.525,0.945l-0.33,0.435c-0.194,0.254 -0.491,0.394 -0.797,0.394c-0.115,0 -0.233,-0.02 -0.346,-0.062l-0.037,-0.013l-0.885,0c-0.11,0.057 -0.23,0.094 -0.354,0.108l-3.413,0.383l-1.278,1.466c-0.178,0.205 -0.432,0.328 -0.703,0.341l-2.079,0.107l-2.325,0.937l-8.016,8.292c-0.192,0.199 -0.453,0.305 -0.719,0.305"/>
    <path fill="#FFFFFF" id="Fill-24" d="m79.00872,41c-0.035,0 -0.07,0.001 -0.105,0.003l-6.128,0.322c-0.142,-0.032 -0.288,-0.048 -0.434,-0.048c-0.053,0 -0.105,0.002 -0.158,0.006l-1.239,0.098c-0.191,0.015 -0.377,0.057 -0.554,0.125l-2.308,0.174c-0.14,-0.031 -0.284,-0.047 -0.428,-0.047c-0.343,0 -0.688,0.089 -1,0.268l-4.567,2.637l-1.538,-0.144c-0.062,-0.006 -0.125,-0.009 -0.187,-0.009c-0.161,0 -0.321,0.019 -0.477,0.057l-3.426,0.022c-0.11,-0.022 -0.222,-0.036 -0.336,-0.039l-0.671,-0.023c-0.29,-0.15 -0.606,-0.225 -0.922,-0.225c-0.433,0 -0.864,0.141 -1.222,0.418l-4.294,3.317c-0.134,0.104 -0.254,0.223 -0.357,0.355l-0.204,0.162l-0.558,-0.265c-0.262,-0.124 -0.543,-0.189 -0.825,-0.194l-0.185,-0.054c-0.185,-0.055 -0.377,-0.083 -0.568,-0.083c-0.165,0 -0.33,0.021 -0.491,0.061c0,0 -0.769,0.195 -1.539,0.394c-0.451,0.116 -0.836,0.215 -1.163,0.313c-0.442,-0.07 -1.204,-0.194 -1.973,-0.321c-0.308,-0.176 -0.65,-0.263 -0.992,-0.263c-0.522,0 -1.041,0.203 -1.431,0.602l-0.3,0.308l-0.836,0.4c-0.276,0.133 -0.516,0.326 -0.702,0.562l-1.962,1.498l-3.253,2.343l-3.709,2.757l-1.647,1.201c-0.449,0.327 -0.741,0.825 -0.808,1.376l-0.051,0.422l-0.582,1.351c-0.053,0.12 -0.092,0.246 -0.12,0.374l-0.298,1.395c-0.007,0.03 -0.013,0.061 -0.017,0.091l-0.459,2.761l-0.26,1.162c-0.022,0.099 -0.036,0.199 -0.043,0.3l-0.095,1.397l-0.395,2.973c-0.01,0.07 -0.016,0.141 -0.017,0.211l-0.174,6.659c-0.008,0.3 0.051,0.598 0.175,0.872l0.031,0.07l0.096,1.469c0.001,0.02 0.003,0.04 0.005,0.06c0.094,0.985 0.539,1.515 0.971,1.799c0.117,0.081 0.245,0.15 0.38,0.205c0.244,0.098 0.498,0.146 0.75,0.146c0.532,0 1.054,-0.212 1.438,-0.61l7.869,-8.139l1.972,-0.796l1.911,-0.097c0.542,-0.028 1.049,-0.274 1.405,-0.683l1.024,-1.173l3.026,-0.34c0.152,-0.017 0.301,-0.051 0.444,-0.102l0.521,0c0.18,0.052 0.364,0.076 0.546,0.076c0.612,0 1.206,-0.281 1.592,-0.789l0.219,-0.287l1.327,-0.822c0.027,-0.016 0.053,-0.033 0.078,-0.051l1.239,-0.849l3.722,0.052c0.149,0.052 0.304,0.086 0.465,0.101l1.939,0.184c0.063,0.006 0.126,0.009 0.189,0.009c0.132,0 0.263,-0.013 0.393,-0.039l1.513,-0.303c0.393,-0.079 0.755,-0.274 1.036,-0.561l2.513,-2.565c0.094,-0.063 0.184,-0.135 0.267,-0.214l1.728,-1.645l2.206,-0.283l1.341,0.633c0.273,0.129 0.564,0.192 0.854,0.192c0.287,0 0.573,-0.062 0.836,-0.182l1.054,-0.13c0.204,-0.025 0.403,-0.081 0.588,-0.166l0.272,-0.046l0.789,0.672c0.377,0.32 0.837,0.477 1.296,0.477c0.224,0 0.448,-0.037 0.661,-0.112l2.647,-0.046c0.269,-0.004 0.533,-0.063 0.776,-0.17l1.654,0.079c0.167,0.045 0.34,0.067 0.513,0.067c0.161,0 0.323,-0.019 0.482,-0.059l0.396,-0.098c0.298,-0.075 0.574,-0.216 0.805,-0.411l0.288,-0.13c0.154,-0.029 0.304,-0.075 0.448,-0.139l1.181,-0.527c0.126,-0.057 0.245,-0.126 0.357,-0.206l0.89,-0.337c0.204,-0.077 0.393,-0.186 0.56,-0.322l2.979,-1.138l0.434,0.212c0.196,0.096 0.407,0.159 0.623,0.187l0.716,0.403c0.308,0.173 0.645,0.256 0.979,0.256c0.43,0 0.855,-0.138 1.204,-0.401c0.035,-0.014 0.069,-0.028 0.103,-0.044l0.524,-0.243l0.022,-0.005l1.608,0.42c0.165,0.043 0.335,0.064 0.505,0.064c0.018,0 0.036,0 0.054,-0.001c0.151,0.064 0.31,0.108 0.475,0.133l1.317,0.197l1.298,0.5c0.229,0.088 0.472,0.133 0.718,0.133c0.045,0 0.091,-0.002 0.137,-0.005c0,0 0.115,-0.008 0.262,-0.018c0.243,0.1 0.502,0.15 0.761,0.15c0.29,0 0.581,-0.063 0.85,-0.19c0.841,-0.103 2.86,-0.345 3.97,-0.438c0.837,-0.062 1.69,-0.149 2.516,-0.234l0.409,-0.041l0.219,-0.021c0.474,-0.045 0.953,-0.09 1.43,-0.144c1.042,-0.118 1.568,-0.709 1.789,-1.05c0.22,-0.341 0.542,-1.059 0.228,-2.037c-0.105,-0.328 -0.202,-0.649 -0.298,-0.968c-0.178,-0.589 -0.361,-1.196 -0.591,-1.831c-0.085,-0.231 -0.159,-0.453 -0.233,-0.676c-0.183,-0.545 -0.389,-1.163 -0.693,-1.778c-0.06,-0.129 -0.132,-0.358 -0.21,-0.6c-0.057,-0.185 -0.117,-0.369 -0.182,-0.551c-0.061,-0.165 -0.12,-0.301 -0.18,-0.436c-0.029,-0.066 -0.06,-0.13 -0.084,-0.199c-0.377,-1.074 -0.837,-1.95 -1.281,-2.797c-0.11,-0.209 -0.222,-0.422 -0.333,-0.64c-0.032,-0.071 -0.068,-0.141 -0.113,-0.225l-0.028,-0.051c-0.005,-0.009 -0.019,-0.036 -0.024,-0.045c-0.104,-0.194 -0.378,-0.708 -1.03,-1.065c-0.316,-0.183 -0.707,-0.288 -1.123,-0.288c-0.218,0 -0.394,0.029 -0.51,0.048l-0.079,0.013c-0.573,0.066 -0.984,0.098 -1.09,0.099c-0.242,0 -0.749,0.037 -1.739,0.116c-0.115,-0.02 -0.232,-0.031 -0.349,-0.031l-0.473,0l-0.31,0l-2.284,-0.298c-0.52,-0.075 -1.833,-0.38 -2.594,-0.569l-1.397,-0.482l-1.827,-0.623c-0.21,-0.072 -0.428,-0.107 -0.645,-0.107c-0.142,0 -0.284,0.015 -0.423,0.045l-1.993,-0.155l-1.045,-0.796c-0.138,-0.104 -0.287,-0.19 -0.446,-0.256l-0.23,-0.207c-0.295,-0.54 -0.829,-0.926 -1.46,-1.02l-1.109,-0.166c-0.064,-0.009 -0.127,-0.016 -0.192,-0.019l-0.143,-0.05c-0.32,-0.204 -0.694,-0.314 -1.076,-0.314c-0.048,0 -0.097,0.002 -0.146,0.006l-1.624,0.119l-1.459,-0.594c-0.24,-0.098 -0.496,-0.148 -0.754,-0.148m-0.001,2l1.893,0.771l2.091,-0.154l0.103,0.094l0.91,0.314l0.102,-0.047l1.109,0.166l0.039,0.187l0.996,0.898l0.186,0.012l1.598,1.217l0.089,-0.051l2.846,0.221l0.139,-0.073l1.82,0.621l1.48,0.511c0,0 2.025,0.505 2.905,0.633l2.412,0.314l0.44,0l0.473,0l0.175,0.051c0.749,-0.06 1.692,-0.136 1.917,-0.136c0.246,0 0.851,-0.059 1.328,-0.114c0.154,-0.019 0.258,-0.046 0.347,-0.046c0.057,0 0.108,0.01 0.162,0.042c0.137,0.075 0.182,0.17 0.237,0.272c0.053,0.102 0.083,0.148 0.108,0.212c0.562,1.102 1.117,2.049 1.531,3.224c0.077,0.23 0.19,0.441 0.276,0.671c0.163,0.455 0.276,0.928 0.48,1.361c0.358,0.723 0.563,1.496 0.839,2.249c0.332,0.918 0.567,1.799 0.866,2.73c0.108,0.336 -0.042,0.455 -0.334,0.489c-0.545,0.061 -1.09,0.111 -1.63,0.162c-0.965,0.097 -1.925,0.2 -2.888,0.272c-1.481,0.123 -4.438,0.494 -4.438,0.494l-0.218,0.127c0,0 -0.272,-0.187 -0.284,-0.187c-0.009,0 -0.875,0.06 -0.875,0.06l-1.502,-0.578l-1.536,-0.23l-0.381,-0.256l-0.443,0.102l-2.089,-0.544l-0.816,0.192l-0.024,0.037l-0.571,0.264l-0.033,-0.012l-0.349,0.166l-0.083,0.106l-1.129,-0.635l-0.312,-0.008l-1.015,-0.497l-0.175,-0.192l-0.135,0.137l-0.616,0.195l-0.026,0.052l-3.496,1.334l-0.095,0.145l-1.258,0.476l-0.097,0.111l-1.181,0.527l-0.119,-0.008l-1.021,0.459l-0.069,0.115l-0.395,0.098l-0.142,-0.051l-2.561,-0.123l-0.274,0.199l-3.184,0.055l-0.089,0.102l-1.557,-1.326l-0.128,0.08l-1.427,0.242l-0.078,0.082l-1.521,0.187l-0.125,0.11l-1.718,-0.812l-0.149,-0.145l-0.127,0.09l-3.312,0.425l-2.202,2.096l-0.055,-0.003l-2.775,2.831l-1.513,0.303l-1.939,-0.184l-0.033,-0.101l-4.95,-0.069l-1.762,1.207l-1.643,1.017l-0.443,0.582l-0.204,-0.076l-1.375,0l-0.155,0.115l-3.674,0.412l-0.166,-0.076l-0.133,0.289l-1.361,1.561l-2.246,0.114l-2.678,1.08l-8.164,8.445c0,-0.008 0,0 -0.008,-0.008c-0.072,-0.013 -0.102,-0.332 -0.102,-0.332l-0.12,-1.829l-0.179,-0.4l0.174,-6.658l0.404,-3.036l0.099,-1.463l0.271,-1.216l0.468,-2.815l0.299,-1.395l0.697,-1.615l0.086,-0.71l1.662,-1.212l3.685,-2.738l3.276,-2.36l2.31,-1.765l0.027,-0.099l1.154,-0.553l0.548,-0.56l0.204,0.161c0,0 2.825,0.465 2.888,0.465c0.001,0 0.001,0 0.001,0c-0.031,-0.027 3.065,-0.81 3.065,-0.81l0.62,0.184l0.099,-0.047l1.682,0.8l1.505,-1.191l0.014,-0.085l4.293,-3.317l0.354,0.208l1.173,0.038l0.083,0.043l4.095,-0.026l0.127,-0.055l2.313,0.217l0.11,0.076l0.208,-0.191l0.055,-0.195l4.606,-2.659l0.088,0.078l3.229,-0.244l0.13,-0.092l1.24,-0.098l0.105,0.068l6.561,-0.345"/>
    <path fill="#CE1141" id="Fill-26" d="m50.82577,112.602c-0.082,0 -0.164,-0.01 -0.245,-0.03l-3.342,-0.844l-0.101,0.064c-0.086,0.056 -0.18,0.097 -0.278,0.123l-0.867,0.477c-0.15,0.083 -0.316,0.124 -0.481,0.124c-0.195,0 -0.39,-0.057 -0.558,-0.17c0,0 -0.179,-0.12 -0.336,-0.225c-0.18,-0.016 -0.351,-0.08 -0.496,-0.183c-0.035,-0.009 -0.069,-0.021 -0.103,-0.033l-2.255,-0.874c-0.006,0.001 -0.011,0.001 -0.012,0.001c-0.197,0 -0.388,-0.071 -0.551,-0.185c-0.697,-0.216 -1.091,-0.34 -1.331,-0.433l-0.004,0.011c-0.07,-0.025 -0.995,-0.336 -1.096,-0.371c-0.175,-0.018 -0.311,-0.038 -0.463,-0.108l0.001,0c-0.169,-0.079 -0.41,-0.245 -0.543,-0.58l-1.857,-2.015l-1.295,-1.659l-1.491,-2.275l-1.932,-2.672c-0.182,-0.252 -0.237,-0.575 -0.148,-0.872l0.138,-0.463c0.055,-0.183 0.161,-0.347 0.306,-0.472l1.441,-1.242c0.158,-0.136 0.355,-0.219 0.562,-0.239l3.559,-0.324l2.437,-5.908c-0.025,-0.332 0.117,-0.658 0.383,-0.865l4.302,-3.348c0.125,-0.097 0.271,-0.163 0.426,-0.193l0.025,-0.005l2.265,-1.75c0.034,-0.066 0.075,-0.127 0.123,-0.185c0.191,-0.227 0.472,-0.356 0.765,-0.356c0.036,0 0.072,0.002 0.108,0.006l0.21,0.022l0.546,-0.23c0.124,-0.053 0.256,-0.079 0.39,-0.079c0.014,0 0.672,0.028 0.672,0.028l0.885,-0.178l1.993,-2.157c0.19,-0.205 0.457,-0.321 0.735,-0.321c0.02,0 2.094,0.125 2.094,0.125l0.289,-0.1c0.106,-0.037 0.216,-0.056 0.328,-0.056c0.039,0 0.078,0.002 0.117,0.007l1.92,0.227c2.935,-1.63 4.056,-2.253 4.503,-2.498c0.199,-0.231 0.491,-0.393 0.783,-0.393c0.014,0 0.164,0.008 0.164,0.008l2.615,-0.455c0.158,-0.106 0.346,-0.166 0.541,-0.169l0.572,-0.009c0,0 3.405,-3.882 3.407,-3.885c0.041,-0.078 0.092,-0.151 0.152,-0.217l2.676,-2.916c0.042,-0.125 0.11,-0.242 0.199,-0.342l0.581,-0.654c0.19,-0.214 0.463,-0.336 0.747,-0.336c0.023,0 3.338,0.226 3.338,0.226l0.23,-0.196c0.151,-0.128 0.335,-0.209 0.531,-0.232l0.486,-0.057l1.57,-0.923c0.154,-0.09 0.329,-0.138 0.507,-0.138l0.012,0l3.005,-2.318c0.138,-0.107 0.304,-0.176 0.479,-0.199l3.141,-0.415l1.388,-1.29c0.155,-0.143 0.349,-0.234 0.557,-0.26l1.28,-0.943c0.072,-0.125 0.17,-0.234 0.29,-0.318c0.17,-0.121 0.372,-0.183 0.576,-0.183c0.104,0 0.208,0.016 0.309,0.048l0.519,0.169l5.683,0.153l3.99,-1.391c0.069,-0.023 0.139,-0.04 0.21,-0.048c0.688,-0.083 1.358,-0.144 2.027,-0.205c0.737,-0.067 1.473,-0.134 2.233,-0.232l0.139,-0.017c0.233,-0.028 0.517,-0.061 0.727,-0.104c0.078,-0.015 0.148,-0.025 0.211,-0.034c0.246,-0.032 0.411,-0.044 0.553,-0.044c1.329,0 1.57,1.131 1.661,1.557c0.115,0.528 0.207,1.029 0.303,1.544l0.207,1.128c0.094,0.515 0.188,1.035 0.266,1.551c0.137,0.906 0.266,1.805 0.362,2.723c0.046,0.494 0.07,0.974 0.094,1.454l0.039,0.717l0.017,0.19c0.013,0.134 0.026,0.267 0.031,0.401l0.091,1.702c0.003,0.06 0.01,0.109 0.017,0.157c0.018,0.135 0.034,0.266 0.034,0.431c0,0.22 -0.007,0.3 -0.019,0.448c-0.029,0.252 -0.08,0.682 -0.476,1.049c-0.364,0.312 -0.729,0.364 -0.904,0.39c-0.204,0.031 -0.545,0.075 -0.545,0.075l-0.683,0.042l-1.045,0.174l-0.867,0.16c-0.103,0.031 -0.64,0.189 -0.64,0.189c-0.443,0.151 -0.903,0.308 -1.363,0.475c-0.164,0.06 -0.328,0.111 -0.495,0.163c-0.173,0.054 -0.351,0.11 -0.529,0.177c-0.805,0.31 -2.785,1.238 -2.805,1.247c-0.134,0.062 -0.278,0.095 -0.425,0.095c-0.039,0 -0.078,-0.002 -0.117,-0.007l-0.465,-0.055l-0.772,-0.109c-0.095,-0.014 -0.186,-0.04 -0.272,-0.079c-0.182,-0.026 -0.457,-0.063 -0.692,-0.095l-0.126,0.123c-0.06,0.058 -0.126,0.107 -0.198,0.148l-0.6,0.71c-0.145,0.169 -0.34,0.287 -0.558,0.332l-1.713,0.361c-0.093,0.063 -0.198,0.112 -0.308,0.141l-1.038,0.279l-0.388,0.738l0.005,0.113c0.018,0.409 -0.216,0.788 -0.591,0.956l-2.761,1.236c-0.168,0.18 -0.397,0.294 -0.644,0.315c-0.029,0.003 -0.059,0.004 -0.088,0.004c-0.213,0 -0.421,-0.068 -0.593,-0.194l-1.456,-0.065l-1.214,0.845c-0.133,0.092 -0.287,0.151 -0.447,0.171l-1.505,0.187l-0.857,0.371l-0.332,1.12c-0.046,0.155 -0.129,0.296 -0.241,0.411c-0.124,0.371 -0.455,0.638 -0.85,0.677l-0.102,0.01l-4.105,1.887c-0.1,0.12 -0.226,0.216 -0.369,0.278l-1.353,0.595c-0.067,0.03 -0.138,0.052 -0.209,0.066c-0.202,0.114 -0.514,0.301 -0.516,0.303c-0.111,0.066 -0.232,0.11 -0.358,0.129c-0.024,0.017 -0.049,0.032 -0.075,0.047l-0.992,0.564l-0.622,1.206c-0.083,0.16 -0.206,0.293 -0.357,0.388l-1.554,2.518c-0.032,0.436 -0.345,0.804 -0.775,0.902l-0.222,0.051c-0.059,0.034 -0.119,0.061 -0.174,0.077l-0.84,0.25l-0.491,1.792l0.1,0.358c0.075,0.271 0.034,0.561 -0.115,0.799c-0.121,0.195 -0.305,0.34 -0.519,0.415l-0.474,0.49c-0.688,0.735 -0.949,1.014 -1.164,1.121l-0.602,0.626l-1.391,1.272c-0.008,0.017 -0.017,0.033 -0.025,0.05c-0.049,0.093 -0.113,0.177 -0.188,0.25c-0.016,0.015 -0.896,0.831 -0.896,0.831c-0.079,0.073 -0.168,0.133 -0.264,0.177c-0.22,0.222 -0.574,0.582 -0.84,0.845l-2.447,3.943c-0.164,0.264 -0.441,0.437 -0.751,0.468l-5.934,0.585l-2.591,1.327c-0.143,0.072 -0.299,0.109 -0.456,0.109"/>
    <path fill="#FFFFFF" id="Fill-28" d="m108.99178,60c-0.184,0 -0.383,0.014 -0.628,0.045c-0.009,0.001 -0.046,0.006 -0.055,0.007c-0.085,0.012 -0.174,0.026 -0.265,0.043c-0.198,0.04 -0.446,0.068 -0.652,0.093l-0.15,0.019c-0.742,0.095 -1.451,0.159 -2.202,0.228c-0.679,0.062 -1.359,0.124 -2.057,0.208c-0.143,0.017 -0.284,0.049 -0.42,0.097l-3.817,1.33l-5.357,-0.144l-0.38,-0.124c-0.203,-0.065 -0.411,-0.097 -0.618,-0.098c-0.409,0 -0.812,0.126 -1.154,0.367c-0.172,0.121 -0.321,0.267 -0.445,0.432l-0.969,0.714c-0.303,0.086 -0.583,0.243 -0.816,0.46l-1.154,1.073l-2.825,0.373c-0.349,0.046 -0.681,0.184 -0.96,0.399l-2.78,2.145c-0.224,0.042 -0.44,0.124 -0.638,0.24l-1.389,0.816l-0.278,0.033c-0.356,0.042 -0.694,0.179 -0.978,0.396l-2.867,-0.196c-0.046,-0.003 -0.091,-0.005 -0.137,-0.005c-0.57,0 -1.114,0.243 -1.495,0.672l-0.581,0.654c-0.124,0.14 -0.226,0.294 -0.306,0.458l-2.558,2.787c-0.088,0.097 -0.166,0.201 -0.234,0.311l-3.048,3.475l-0.129,0.002c-0.306,0.005 -0.603,0.08 -0.87,0.215l-2.329,0.405l-0.009,-0.001c-0.036,-0.002 -0.072,-0.003 -0.107,-0.003c-0.559,0 -1.084,0.235 -1.457,0.63c-0.581,0.319 -1.718,0.95 -4.021,2.23l-1.599,-0.189c-0.078,-0.009 -0.156,-0.014 -0.234,-0.014c-0.223,0 -0.445,0.038 -0.656,0.111l-0.101,0.035l-1.833,-0.111c-0.041,-0.002 -0.081,-0.004 -0.122,-0.004c-0.555,0 -1.088,0.232 -1.468,0.642l-1.774,1.92l-0.449,0.09l-0.505,-0.022c-0.03,-0.001 -0.059,-0.002 -0.088,-0.002c-0.268,0 -0.533,0.053 -0.779,0.158l-0.308,0.13c-0.055,-0.005 -0.111,-0.007 -0.167,-0.007c-0.586,0 -1.146,0.258 -1.529,0.711c-0.041,0.048 -0.079,0.099 -0.115,0.15l-1.957,1.513c-0.223,0.071 -0.432,0.182 -0.618,0.325l-4.301,3.348c-0.459,0.357 -0.733,0.89 -0.768,1.455l-2.131,5.167l-2.957,0.269c-0.415,0.039 -0.808,0.206 -1.124,0.477l-1.441,1.242c-0.29,0.25 -0.502,0.577 -0.611,0.944l-0.138,0.462c-0.178,0.596 -0.069,1.24 0.295,1.744l1.931,2.674l1.419,2.169c0.03,0.046 0.061,0.09 0.095,0.133l1.239,1.595c0.034,0.044 0.071,0.087 0.109,0.129l1.747,1.893c0.231,0.452 0.593,0.755 0.964,0.928c0.253,0.118 0.485,0.162 0.667,0.185c0.103,0.035 0.226,0.077 0.375,0.127c0.255,0.086 0.523,0.175 0.601,0.204l0.005,-0.012c0.273,0.103 0.648,0.222 1.178,0.387c0.267,0.159 0.56,0.251 0.845,0.28l2.103,0.815c0.012,0.005 0.025,0.01 0.037,0.014c0.169,0.099 0.352,0.173 0.543,0.219c0.09,0.059 0.159,0.106 0.159,0.106c0.336,0.226 0.725,0.34 1.116,0.34c0.33,0 0.662,-0.082 0.962,-0.247l0.784,-0.431c0.039,-0.013 0.078,-0.028 0.116,-0.044l2.963,0.748c0.161,0.04 0.325,0.06 0.488,0.06c0.315,0 0.627,-0.074 0.912,-0.22l2.423,-1.239l5.745,-0.567c0.619,-0.062 1.175,-0.408 1.503,-0.936l2.385,-3.844c0.213,-0.212 0.463,-0.464 0.656,-0.66c0.121,-0.072 0.235,-0.157 0.34,-0.254c0,0 0.917,-0.851 0.934,-0.869c0.112,-0.111 0.209,-0.235 0.291,-0.369l1.223,-1.115c0.032,-0.029 0.063,-0.06 0.093,-0.091l0.53,-0.552c0.331,-0.227 0.688,-0.609 1.257,-1.217l0.315,-0.326c0.319,-0.163 0.591,-0.41 0.784,-0.719c0.297,-0.477 0.381,-1.056 0.23,-1.597l-0.026,-0.093l0.272,-0.99l0.307,-0.091c0.084,-0.025 0.166,-0.056 0.245,-0.091l0.088,-0.02c0.766,-0.175 1.347,-0.778 1.51,-1.525l1.347,-2.182c0.203,-0.17 0.373,-0.38 0.496,-0.618l0.486,-0.943l0.693,-0.393c0.17,-0.048 0.335,-0.118 0.489,-0.209c0.003,-0.002 0.207,-0.124 0.386,-0.228c0.079,-0.023 0.156,-0.052 0.232,-0.085l1.353,-0.596c0.205,-0.089 0.392,-0.213 0.555,-0.363l3.784,-1.739c0.685,-0.091 1.266,-0.528 1.55,-1.14c0.149,-0.194 0.262,-0.415 0.333,-0.652l0.199,-0.672l0.297,-0.128l1.363,-0.169c0.321,-0.04 0.629,-0.158 0.896,-0.344l0.936,-0.651l0.87,0.038c0.275,0.136 0.577,0.207 0.885,0.207c0.06,0 0.12,-0.003 0.18,-0.009c0.414,-0.037 0.802,-0.202 1.115,-0.466l2.607,-1.167c0.697,-0.312 1.151,-0.991 1.181,-1.744l0.065,-0.124l0.616,-0.164c0.144,-0.039 0.284,-0.094 0.416,-0.164l1.551,-0.325c0.436,-0.092 0.83,-0.326 1.117,-0.667l0.484,-0.572c0.039,0.005 0.078,0.01 0.114,0.015c0.124,0.044 0.253,0.076 0.384,0.094l0.75,0.107l0.51,0.061c0.079,0.009 0.158,0.014 0.236,0.014c0.293,0 0.583,-0.065 0.85,-0.19c0.545,-0.255 2.099,-0.972 2.743,-1.22c0.152,-0.058 0.31,-0.106 0.465,-0.155c0.179,-0.055 0.356,-0.112 0.529,-0.174c0.462,-0.167 0.914,-0.323 1.367,-0.475c0.077,-0.025 0.184,-0.055 0.29,-0.086c0.082,-0.023 0.165,-0.047 0.248,-0.072l0.831,-0.154l0.955,-0.159l0.563,-0.032c0.047,-0.003 0.092,-0.007 0.139,-0.013c0,0 0.352,-0.046 0.485,-0.065c0.025,-0.004 0.05,-0.008 0.074,-0.013c0.251,-0.037 0.839,-0.129 1.382,-0.593c0.02,-0.016 0.04,-0.034 0.059,-0.052c0.669,-0.619 0.753,-1.341 0.78,-1.579c0.003,-0.019 0.011,-0.084 0.012,-0.104c0.016,-0.187 0.024,-0.281 0.024,-0.548c0,-0.249 -0.026,-0.44 -0.043,-0.567c-0.003,-0.024 -0.008,-0.048 -0.01,-0.076l-0.047,-0.874l-0.043,-0.833c-0.006,-0.129 -0.02,-0.279 -0.034,-0.428l-0.016,-0.185c-0.014,-0.217 -0.026,-0.454 -0.037,-0.691c-0.025,-0.492 -0.05,-0.984 -0.097,-1.48c-0.103,-0.987 -0.238,-1.924 -0.37,-2.794c-0.078,-0.526 -0.177,-1.065 -0.274,-1.596l-0.094,-0.522l-0.111,-0.592c-0.096,-0.523 -0.19,-1.033 -0.307,-1.574c-0.435,-2.038 -1.84,-2.343 -2.639,-2.343m0,2c0.433,0 0.56,0.181 0.684,0.765c0.155,0.718 0.268,1.378 0.404,2.096c0.121,0.68 0.257,1.377 0.359,2.066c0.136,0.894 0.263,1.778 0.357,2.679c0.066,0.714 0.086,1.421 0.13,2.13c0.014,0.193 0.039,0.384 0.047,0.575c0.031,0.569 0.061,1.139 0.091,1.71c0.011,0.204 0.05,0.331 0.05,0.534c0,0.185 -0.006,0.248 -0.017,0.376c-0.016,0.118 -0.013,0.254 -0.157,0.387c-0.144,0.123 -0.332,0.123 -0.451,0.147c-0.122,0.019 -0.445,0.06 -0.445,0.06l-0.67,0.039l-1.096,0.183l-0.943,0.173c-0.235,0.075 -0.459,0.132 -0.702,0.209c-0.468,0.159 -0.936,0.319 -1.403,0.489c-0.332,0.119 -0.68,0.209 -1.038,0.344c-0.851,0.329 -2.874,1.277 -2.874,1.277l-0.465,-0.055l-0.75,-0.106l-0.071,-0.052c0,0 -1.361,-0.187 -1.378,-0.187c-0.011,0.009 -0.475,0.459 -0.475,0.459l-0.097,0.022l-0.77,0.909l-2.003,0.421l-0.071,0.094l-1.461,0.391l-0.717,1.365l0.017,0.382l-2.974,1.331l-0.111,0.137l-0.207,-0.179l-2.136,-0.093l-1.491,1.037l-1.645,0.205l-1.419,0.611l-0.465,1.569l-0.175,0.132l-0.055,0.246l-0.268,0.027l-4.498,2.066l-0.115,0.162l-1.352,0.595l-0.086,0c-0.035,0 -0.749,0.425 -0.749,0.425l-0.249,-0.038l-0.166,0.204l-1.251,0.711l-0.758,1.47l-0.168,0.078l-1.843,2.984l-0.008,0.23l-0.407,0.092l-0.052,0.052l-1.373,0.408l-0.711,2.595l0.175,0.625l-0.18,0.033l-0.683,0.705c0,0 -0.825,0.881 -0.847,0.881c-0.022,0.005 -0.185,0.103 -0.185,0.103l-0.737,0.765l-1.579,1.442c0,0 0.009,0.089 0,0.106c-0.016,0.016 -0.88,0.816 -0.88,0.816l-0.096,0.003c0,0 -0.714,0.729 -1.115,1.124l-2.509,4.043l-6.122,0.605l-2.761,1.412l-3.763,-0.949l-0.465,0.298l-0.049,-0.005l-1.037,0.57c0,0 -0.571,-0.383 -0.587,-0.391l-0.222,0l-0.135,-0.161l-0.188,0.008l-2.479,-0.961c0,0 -0.141,0.021 -0.149,0.021c-0.017,0 -0.033,-0.072 -0.033,-0.072c0,0 -1.489,-0.46 -1.494,-0.467c-0.009,-0.009 -1.212,-0.409 -1.223,-0.416c-0.008,-0.01 -0.24,-0.023 -0.277,-0.039c-0.044,-0.013 -0.055,-0.166 -0.055,-0.166l-2.028,-2.199l-1.239,-1.594l-1.444,-2.208l-1.959,-2.712l0.138,-0.463l1.442,-1.242l4.388,-0.401l-0.106,-0.27l2.656,-6.44l-0.036,-0.194l4.302,-3.348l0.26,-0.05l2.758,-2.131l-0.028,-0.097l0.468,0.051l0.786,-0.332l0.749,0.033l1.322,-0.267l2.214,-2.394l2.232,0.136l0.479,-0.167l2.24,0.265c0,0 4.975,-2.764 4.997,-2.772c0.011,-0.01 0.074,-0.15 0.074,-0.15l0.236,0.013l3.031,-0.527l0.08,-0.102l1.016,-0.017l3.693,-4.209l0.114,-0.026l0.03,-0.183l2.899,-3.159l-0.013,-0.111l0.58,-0.654l3.353,0.229l0.18,0.144l0.684,-0.582l0.694,-0.082l1.751,-1.029l0.34,0.01l3.287,-2.535l3.601,-0.476l0.078,-0.187l1.4,-1.301l0.249,-0.025l1.77,-1.306l0.003,-0.106l0.656,0.212l6.011,0.162l4.163,-1.451c1.45,-0.174 2.817,-0.25 4.269,-0.437c0.276,-0.034 0.664,-0.077 0.938,-0.133c0.063,-0.012 0.127,-0.02 0.185,-0.029c0.149,-0.018 0.273,-0.029 0.379,-0.029"/>
    <path fill="#CE1141" id="Fill-30" d="m73.708,125.774l-0.625,-0.025l-1.293,-0.021l-1.171,-0.056l-1.698,-0.139c-1.168,-0.129 -1.921,-0.211 -1.921,-1.145c0,-0.189 0.053,-0.375 0.154,-0.535l0.305,-0.481c0.085,-0.133 0.2,-0.245 0.336,-0.326l2.57,-1.521c0.15,-0.089 0.319,-0.136 0.49,-0.14l1.105,-0.653c0.015,-0.108 0.048,-0.355 0.076,-0.563c-0.095,-0.203 -0.121,-0.432 -0.07,-0.653c0.061,-0.264 0.227,-0.494 0.461,-0.634c1.209,-0.722 1.862,-1.114 2.245,-1.326c0.375,-0.524 1.583,-2.23 2.013,-2.838c0.022,-0.136 0.07,-0.267 0.146,-0.384l0.659,-1.034c0.094,-0.148 0.227,-0.269 0.382,-0.349l2.255,-3.572c-0.007,-0.199 0.044,-0.399 0.154,-0.573l0.212,-1.432c-0.031,-0.161 -0.022,-0.328 0.028,-0.484l0.691,-2.213c0.029,-0.09 0.07,-0.175 0.121,-0.255l0.479,-2.173c0.101,-0.459 0.507,-0.786 0.977,-0.786l0.224,0l1.808,-0.865c-0.048,-0.172 -0.048,-0.354 -0.001,-0.526l1.889,-6.983c0.047,-0.176 0.142,-0.336 0.274,-0.461l0.263,-0.251l0.441,-1.76c0.052,-0.205 0.167,-0.39 0.329,-0.525l0.735,-0.613c0.124,-0.103 0.27,-0.175 0.425,-0.209l4.424,-2.845l0.226,-0.371c0.042,-0.305 0.22,-0.566 0.471,-0.718l0.758,-1.33c0.026,-0.183 0.102,-0.356 0.22,-0.499c0.056,-0.367 0.311,-0.68 0.676,-0.8l2.118,-0.701c0.143,-0.093 0.305,-0.155 0.464,-0.165l0.317,-0.019l1.04,-1.106c0.081,-0.086 0.177,-0.157 0.282,-0.21c0.885,-0.44 2.828,-1.387 3.033,-1.486c0.341,-0.161 0.7,-0.3 1.057,-0.436c0.26,-0.099 0.519,-0.198 0.764,-0.307c0.521,-0.231 1.052,-0.383 1.564,-0.529l0.257,-0.075c0.381,-0.106 0.755,-0.191 1.13,-0.276l0.481,-0.11c0.072,-0.028 0.226,-0.053 0.384,-0.073l0.854,-0.133c0.021,-0.003 0.647,-0.081 0.779,-0.081c0.443,0 0.86,0.179 1.142,0.493c0.392,0.415 0.368,0.978 0.357,1.219l-0.024,0.733c-0.034,0.848 -0.073,1.69 -0.144,2.525c-0.039,0.469 -0.106,0.935 -0.176,1.4l-0.133,0.929c-0.102,0.708 -0.204,1.418 -0.317,2.126c-0.123,0.822 -0.264,1.647 -0.406,2.478l-0.049,0.28c-0.026,0.169 -0.06,0.394 -0.15,0.628c-0.244,0.644 -0.398,1.325 -0.56,2.047c-0.091,0.405 -0.182,0.81 -0.289,1.211c-0.472,1.79 -0.923,3.233 -1.42,4.54c-0.429,1.114 -0.891,2.214 -1.355,3.315l-0.326,0.774c-0.342,0.82 -0.779,1.588 -1.201,2.329l-0.08,0.142c-0.402,0.697 -0.778,1.399 -1.154,2.1l-0.337,0.627c-0.357,0.672 -0.783,1.295 -1.194,1.898c-0.149,0.216 -0.297,0.434 -0.443,0.653l-0.267,0.411c-0.318,0.488 -0.636,0.977 -0.972,1.455c-0.26,0.371 -0.568,0.738 -0.894,1.064c-0.104,0.105 -0.216,0.209 -0.329,0.315c-0.226,0.212 -0.441,0.412 -0.567,0.613c-0.166,0.257 -0.345,0.445 -0.503,0.61l-0.214,0.218c-0.144,0.141 -0.28,0.274 -0.32,0.373c-0.099,0.25 -0.27,0.414 -0.361,0.502l-1.272,1.271c-0.436,0.429 -0.866,0.848 -1.304,1.265c-1.178,1.117 -2.466,2.093 -3.712,3.038l-0.432,0.328c-0.878,0.657 -2.683,1.612 -2.759,1.652l-0.754,0.433c-0.043,0.024 -0.087,0.047 -0.133,0.064l-2.235,0.885l-1.84,0.541l-1.632,0.446l-2.229,0.396l-3.647,0.44c0,0 -1.101,0.033 -1.11,0.033c-0.008,0 -1.022,-0.026 -1.022,-0.026"/>
    <path fill="#FFFFFF" id="Fill-32" d="m110.5179,76.1992c-0.09,0 -0.241,0 -0.891,0.087l-0.884,0.138c-0.124,0.015 -0.307,0.041 -0.519,0.099l-0.404,0.093c-0.399,0.09 -0.795,0.181 -1.187,0.29l-0.269,0.077c-0.522,0.151 -1.113,0.32 -1.697,0.577c-0.234,0.105 -0.475,0.196 -0.717,0.288c-0.366,0.14 -0.742,0.284 -1.126,0.466c-0.216,0.104 -2.167,1.056 -3.055,1.498c-0.211,0.105 -0.402,0.247 -0.564,0.419l-0.77,0.818c-0.289,0.029 -0.564,0.121 -0.81,0.264l-1.945,0.643c-0.639,0.211 -1.112,0.72 -1.293,1.337c-0.106,0.172 -0.185,0.359 -0.236,0.554l-0.573,1.007c-0.313,0.262 -0.544,0.617 -0.652,1.025l-0.017,0.029l-4.105,2.641c-0.235,0.078 -0.455,0.199 -0.649,0.36l-0.736,0.613c-0.325,0.272 -0.556,0.639 -0.66,1.05l-0.371,1.481l-0.055,0.053c-0.262,0.252 -0.452,0.571 -0.546,0.921l-1.89,6.983c-0.014,0.052 -0.025,0.105 -0.035,0.159l-1.033,0.494c-0.938,0.001 -1.748,0.653 -1.951,1.569l-0.446,2.027c-0.053,0.101 -0.097,0.209 -0.131,0.32l-0.692,2.212c-0.079,0.252 -0.107,0.515 -0.083,0.775l-0.166,1.121c-0.086,0.183 -0.144,0.376 -0.171,0.574l-2.001,3.167c-0.196,0.145 -0.366,0.326 -0.499,0.535l-0.658,1.033c-0.1,0.156 -0.177,0.324 -0.23,0.5c-0.447,0.632 -1.346,1.902 -1.773,2.502c-0.448,0.255 -1.093,0.64 -2.072,1.226c-0.466,0.28 -0.799,0.737 -0.921,1.267c-0.066,0.284 -0.068,0.577 -0.01,0.857l-0.449,0.266c-0.238,0.041 -0.467,0.125 -0.678,0.25l-2.57,1.522c-0.272,0.161 -0.502,0.384 -0.672,0.652l-0.304,0.481c-0.202,0.32 -0.31,0.691 -0.31,1.069c0,1.829 1.745,2.021 2.786,2.135c0.018,0.002 0.036,0.004 0.055,0.006l1.662,0.137c0.023,0.002 0.045,0.003 0.068,0.004l1.139,0.056c0.022,0.001 0.044,0.002 0.066,0.002l1.292,0.02l0.586,0.023l1.025,0.028c0.017,0.001 0.035,0.001 0.052,0.001c0.018,0 0.036,0 0.054,-0.001l0.99,-0.027c0.062,-0.001 0.124,-0.005 0.186,-0.013l3.593,-0.433c0.036,-0.004 0.071,-0.01 0.107,-0.015l2.138,-0.375c0.061,-0.011 0.121,-0.025 0.182,-0.041l1.615,-0.441l1.784,-0.519c0.06,-0.018 0.118,-0.039 0.177,-0.061l2.235,-0.886c0.091,-0.036 0.18,-0.079 0.265,-0.128l0.16,-0.092l0.591,-0.337c0.302,-0.161 1.971,-1.055 2.855,-1.716l0.446,-0.339c1.266,-0.96 2.575,-1.953 3.792,-3.106c0.445,-0.423 0.878,-0.846 1.313,-1.274l0.545,-0.545c0.225,-0.225 0.449,-0.451 0.677,-0.675c0.015,-0.014 0.029,-0.029 0.043,-0.044c0.129,-0.124 0.376,-0.366 0.554,-0.75c0.043,-0.045 0.09,-0.088 0.136,-0.132l0.105,-0.104c0.018,-0.018 0.037,-0.037 0.055,-0.056l0.084,-0.088c0.167,-0.177 0.397,-0.419 0.605,-0.74c0.074,-0.117 0.258,-0.289 0.42,-0.44c0.122,-0.113 0.243,-0.227 0.358,-0.344c0.36,-0.359 0.706,-0.772 1,-1.19c0.345,-0.492 0.67,-0.992 0.996,-1.492l0.264,-0.405c0.137,-0.206 0.281,-0.418 0.427,-0.63c0.428,-0.627 0.87,-1.274 1.257,-2.001l0.318,-0.593c0.389,-0.726 0.757,-1.412 1.15,-2.093l0.082,-0.146c0.439,-0.77 0.892,-1.566 1.26,-2.448l0.307,-0.729c0.464,-1.1 0.943,-2.237 1.383,-3.38c0.509,-1.343 0.971,-2.819 1.455,-4.651c0.109,-0.408 0.203,-0.825 0.297,-1.242c0.154,-0.687 0.299,-1.336 0.519,-1.915c0.127,-0.332 0.174,-0.634 0.204,-0.834l0.032,-0.188c0.148,-0.861 0.294,-1.715 0.424,-2.577c0.116,-0.721 0.222,-1.461 0.327,-2.201l0.06,-0.416l0.063,-0.427c0.069,-0.469 0.14,-0.955 0.183,-1.467c0.073,-0.869 0.113,-1.745 0.147,-2.562l0.01,-0.263l0.012,-0.437c0.015,-0.333 0.057,-1.257 -0.642,-2c-0.441,-0.491 -1.127,-0.792 -1.855,-0.792m0,2c0.105,0 0.276,0.026 0.398,0.162c0.133,0.141 0.106,0.403 0.1,0.562c-0.006,0.157 -0.011,0.416 -0.011,0.416c0,0 -0.008,0.184 -0.011,0.272c-0.034,0.826 -0.072,1.654 -0.141,2.475c-0.05,0.596 -0.149,1.186 -0.232,1.777c-0.125,0.867 -0.247,1.736 -0.385,2.604c-0.138,0.918 -0.296,1.828 -0.453,2.747c-0.023,0.143 -0.045,0.298 -0.1,0.441c-0.413,1.088 -0.581,2.236 -0.88,3.356c-0.395,1.5 -0.836,2.989 -1.389,4.442c-0.523,1.361 -1.101,2.706 -1.667,4.058c-0.341,0.815 -0.792,1.594 -1.229,2.363c-0.523,0.906 -1.007,1.829 -1.502,2.747c-0.46,0.863 -1.049,1.654 -1.591,2.474c-0.404,0.618 -0.8,1.239 -1.223,1.843c-0.229,0.326 -0.497,0.647 -0.783,0.931c-0.354,0.357 -0.766,0.673 -1.037,1.105c-0.133,0.205 -0.31,0.375 -0.476,0.553c-0.243,0.242 -0.503,0.468 -0.639,0.8c-0.033,0.084 -0.127,0.152 -0.193,0.226c-0.41,0.404 -0.811,0.811 -1.218,1.215c-0.429,0.421 -0.855,0.837 -1.289,1.25c-1.27,1.204 -2.675,2.242 -4.061,3.295c-0.819,0.614 -2.62,1.565 -2.62,1.565l-0.628,0.358l-0.16,0.093l-2.235,0.885l-1.752,0.51l-1.615,0.442l-2.139,0.375l-3.593,0.432l-0.991,0.027l-0.996,-0.027l-0.611,-0.024l-1.317,-0.021l-1.14,-0.055l-1.662,-0.138c0,0 -1.005,-0.11 -1.005,-0.147l0.305,-0.482l2.57,-1.521l0.185,0.041l1.754,-1.037l0.343,-0.107l-0.213,-0.36c0,0 0.13,-0.952 0.13,-0.979l-0.133,-0.203c0,0 2.395,-1.433 2.424,-1.433c0.006,0 2.291,-3.228 2.291,-3.228l0.018,-0.208l0.659,-1.033l0.2,-0.06l2.691,-4.261l-0.097,-0.179l0.106,-0.131l0.281,-1.9l-0.038,-0.12l0.691,-2.211l0.086,-0.077l0.536,-2.436l0.452,0l2.797,-1.339l-0.252,-0.792l1.889,-6.982l0.471,-0.451l0.512,-2.04l0.735,-0.613l0.103,0.008l4.838,-3.112c0.244,-0.4 0.462,-0.756 0.462,-0.756l0.022,-0.197l0.149,-0.008l1.076,-1.888l0.003,-0.148l0.239,-0.234l-0.02,-0.256l2.29,-0.757l0.039,-0.059l0.706,-0.043l0.15,0.068l0.041,-0.263l1.129,-1.199c0.879,-0.439 2.813,-1.382 3.018,-1.48c0.575,-0.273 1.22,-0.476 1.795,-0.732c0.539,-0.238 1.126,-0.391 1.695,-0.557c0.515,-0.144 1.038,-0.25 1.561,-0.374c0.094,-0.031 0.191,-0.042 0.291,-0.055l0.871,-0.136c0,0 0.518,-0.069 0.625,-0.069"/>
   </g>
  </g>
 </g>
</svg>