<?xml version="1.0" encoding="utf-8"?>
<svg width="22px" height="22px" viewBox="0 0 22 22" version="1.1" xmlns:xlink="http://www.w3.org/1999/xlink" xmlns="http://www.w3.org/2000/svg">
  <desc>Created with Lunacy</desc>
  <path d="M20.6773 9.18261C21.2754 8.73307 21.443 7.89695 21.0656 7.24535L18.986 3.68322C18.6214 3.00689 17.7873 2.75782 17.1208 3.12626L15.2937 3.97865C14.9733 3.76234 14.64 3.56662 14.2955 3.39263L14.1097 1.31493L14.0954 1.2108C13.9688 0.518429 13.3803 0.0123045 12.6876 1.27732e-05L8.62604 1.27732e-05C7.87755 -0.00222641 7.25413 0.582923 7.19675 1.34156L7.01332 3.39506C6.66638 3.56622 6.33131 3.7612 6.01044 3.97865L4.15951 3.11415L4.11425 3.09478C3.44516 2.82074 2.67951 3.08533 2.31334 3.71712L0.298047 7.23809C-0.0787189 7.88929 0.0876472 8.72445 0.683955 9.17535L2.36575 10.3861C2.34669 10.575 2.33478 10.776 2.33478 10.9891C2.33478 11.2022 2.33478 11.3935 2.36337 11.5775L0.629165 12.7932L0.593433 12.8198C-0.00733428 13.2673 -0.177199 14.1045 0.200379 14.7571L2.2395 18.3216C2.41269 18.6265 2.68593 18.8597 3.01131 18.9803C3.36941 19.1015 3.76116 19.0637 4.09043 18.8762L5.92706 18.0238C6.24659 18.2401 6.57916 18.4358 6.9228 18.6098L7.11099 20.6875L7.12528 20.7892C7.25178 21.4807 7.83898 21.9866 8.53075 22L12.5947 22C13.3432 22.0022 13.9666 21.4171 14.024 20.6584L14.2074 18.6122C14.5545 18.4394 14.8895 18.2428 15.2103 18.0238L17.066 18.8931L17.1112 18.9125C17.7803 19.1865 18.546 18.9219 18.9122 18.2901L20.9274 14.7643C21.3075 14.1147 21.1429 13.2781 20.5463 12.8271L18.9955 11.626C19.0162 11.4184 19.0265 11.2099 19.0265 11.0012C19.0265 10.7881 19.0146 10.5871 18.9955 10.3982L20.663 9.18745L20.6773 9.18261ZM16.8482 9.84583L16.9279 10.436C16.9775 10.7437 17.0057 11.0547 17.0122 11.3667C17.0057 11.6786 16.9775 11.9896 16.9279 12.2973L16.8506 12.8679L18.9402 14.5308L17.3566 17.3839L14.8828 16.1937L14.4307 16.5831C13.9606 16.9651 13.4418 17.2767 12.8892 17.5088L12.3762 17.7341L12.142 20.5333L8.99352 20.5333L8.75926 17.7341L8.24623 17.5039C7.68697 17.2548 7.15906 16.9348 6.67435 16.5512L6.22692 16.201L3.77188 17.3839L2.2 14.5504L4.03425 13.2451L4.51682 12.8973L4.43483 12.2924C4.38375 11.9865 4.354 11.6771 4.34581 11.3667C4.35231 11.0547 4.3805 10.7437 4.43015 10.436L4.5098 9.84583L2.28433 8.18295L3.86324 5.34209L6.33468 6.52986L6.7868 6.14292C7.25684 5.76078 7.77567 5.44919 8.32822 5.21719L8.84593 4.99923L9.08019 2.20001L12.224 2.20001L12.4582 4.99923L12.9712 5.22944C13.5305 5.47853 14.0584 5.79848 14.5431 6.1821L14.9906 6.53231L17.4409 5.35434L19.0667 8.18295L16.8482 9.84583ZM10.6332 7.33357C8.40571 7.33357 6.59998 9.1393 6.59998 11.3668C6.59998 13.5943 8.40571 15.4 10.6332 15.4C12.8607 15.4 14.6664 13.5943 14.6664 11.3668C14.6778 10.2937 14.2566 9.26114 13.4977 8.50227C12.7388 7.7434 11.7063 7.32215 10.6332 7.33357ZM10.6332 13.5219C9.44296 13.5219 8.47808 12.557 8.47808 11.3668C8.47808 10.1765 9.44296 9.21167 10.6332 9.21167C11.8234 9.21167 12.7883 10.1765 12.7883 11.3668C12.7947 11.9403 12.5697 12.4921 12.1641 12.8977C11.7586 13.3032 11.2067 13.5283 10.6332 13.5219Z" id="Combined-Shape" fill="#909090" fill-rule="evenodd" stroke="none" />
</svg>